<?xml version="1.0" encoding="UTF-8"?>
<svg xmlns="http://www.w3.org/2000/svg" xmlns:xlink="http://www.w3.org/1999/xlink" width="1440pt" height="809.999993pt" viewBox="0 0 1440 809.999993" version="1.2">
<defs>
<filter id="alpha" filterUnits="objectBoundingBox" x="0%" y="0%" width="100%" height="100%">
  <feColorMatrix type="matrix" in="SourceGraphic" values="0 0 0 0 1 0 0 0 0 1 0 0 0 0 1 0 0 0 1 0"/>
</filter>
<mask id="mask0">
  <g filter="url(#alpha)">
<rect x="0" y="0" width="1440" height="809.999993" style="fill:rgb(0%,0%,0%);fill-opacity:0.4196;stroke:none;"/>
  </g>
</mask>
<clipPath id="clip2">
  <path d="M 37.476562 1.160156 L 152.109375 1.160156 L 152.109375 88 L 37.476562 88 Z M 37.476562 1.160156 "/>
</clipPath>
<clipPath id="clip3">
  <path d="M 73 31 L 152.109375 31 L 152.109375 88 L 73 88 Z M 73 31 "/>
</clipPath>
<clipPath id="clip4">
  <path d="M 37.476562 22 L 128 22 L 128 88 L 37.476562 88 Z M 37.476562 22 "/>
</clipPath>
<clipPath id="clip5">
  <path d="M 44.691406 8.070312 L 144.921875 8.070312 L 144.921875 81.421875 L 44.691406 81.421875 Z M 44.691406 8.070312 "/>
</clipPath>
<clipPath id="clip6">
  <path d="M 75 33 L 144.921875 33 L 144.921875 81.421875 L 75 81.421875 Z M 75 33 "/>
</clipPath>
<clipPath id="clip7">
  <path d="M 44.691406 25 L 124 25 L 124 81.421875 L 44.691406 81.421875 Z M 44.691406 25 "/>
</clipPath>
<clipPath id="clip1">
  <rect x="0" y="0" width="184" height="90"/>
</clipPath>
<g id="surface5" clip-path="url(#clip1)">
<path style=" stroke:none;fill-rule:nonzero;fill:rgb(100%,100%,100%);fill-opacity:1;" d="M 37.476562 1.160156 L 152.109375 1.160156 L 152.109375 88 L 37.476562 88 Z M 37.476562 1.160156 "/>
<g clip-path="url(#clip2)" clip-rule="nonzero">
<path style=" stroke:none;fill-rule:nonzero;fill:rgb(96.078491%,97.24884%,99.21875%);fill-opacity:1;" d="M 37.476562 1.160156 L 152.109375 1.160156 L 152.109375 88 L 37.476562 88 Z M 37.476562 1.160156 "/>
</g>
<path style=" stroke:none;fill-rule:nonzero;fill:rgb(100%,100%,100%);fill-opacity:1;" d="M 123.894531 19.664062 C 123.863281 20.554688 123.746094 21.433594 123.542969 22.300781 C 123.339844 23.167969 123.058594 24.007812 122.691406 24.816406 C 122.324219 25.628906 121.882812 26.398438 121.363281 27.121094 C 120.847656 27.847656 120.265625 28.515625 119.617188 29.125 C 118.972656 29.738281 118.269531 30.28125 117.515625 30.753906 C 116.761719 31.230469 115.972656 31.625 115.140625 31.945312 C 114.308594 32.265625 113.453125 32.5 112.578125 32.652344 C 111.699219 32.804688 110.816406 32.871094 109.925781 32.851562 C 109.035156 32.828125 108.15625 32.722656 107.289062 32.53125 C 106.417969 32.335938 105.578125 32.0625 104.761719 31.707031 C 103.945312 31.347656 103.171875 30.914062 102.441406 30.40625 C 101.710938 29.898438 101.035156 29.324219 100.417969 28.683594 C 99.796875 28.042969 99.246094 27.347656 98.765625 26.601562 C 98.28125 25.851562 97.875 25.066406 97.546875 24.238281 C 97.21875 23.410156 96.972656 22.558594 96.8125 21.683594 C 96.648438 20.808594 96.570312 19.925781 96.582031 19.035156 C 96.59375 18.144531 96.6875 17.261719 96.871094 16.390625 C 97.054688 15.519531 97.320312 14.675781 97.667969 13.855469 C 98.015625 13.035156 98.4375 12.257812 98.9375 11.519531 C 99.4375 10.78125 100.003906 10.101562 100.636719 9.476562 C 101.269531 8.847656 101.960938 8.289062 102.703125 7.800781 C 103.445312 7.308594 104.226562 6.890625 105.050781 6.554688 C 105.875 6.214844 106.722656 5.960938 107.59375 5.789062 C 108.46875 5.613281 109.351562 5.527344 110.242188 5.527344 C 111.152344 5.546875 112.054688 5.648438 112.945312 5.84375 C 113.835938 6.039062 114.699219 6.316406 115.539062 6.679688 C 116.375 7.042969 117.167969 7.488281 117.917969 8.007812 C 118.667969 8.527344 119.359375 9.113281 119.992188 9.769531 C 120.625 10.425781 121.191406 11.140625 121.683594 11.90625 C 122.175781 12.671875 122.589844 13.480469 122.925781 14.328125 C 123.261719 15.179688 123.511719 16.050781 123.671875 16.949219 C 123.835938 17.847656 123.910156 18.753906 123.894531 19.664062 Z M 123.894531 19.664062 "/>
<g clip-path="url(#clip3)" clip-rule="nonzero">
<path style=" stroke:none;fill-rule:nonzero;fill:rgb(100%,100%,100%);fill-opacity:1;" d="M 182.351562 88 L 73.273438 88 L 127.8125 31.535156 Z M 182.351562 88 "/>
</g>
<g clip-path="url(#clip4)" clip-rule="nonzero">
<path style=" stroke:none;fill-rule:nonzero;fill:rgb(100%,100%,100%);fill-opacity:1;" d="M 127.8125 88 L 0.882812 88 L 64.347656 22.296875 Z M 127.8125 88 "/>
</g>
<g clip-path="url(#clip5)" clip-rule="nonzero">
<path style=" stroke:none;fill-rule:nonzero;fill:rgb(74.899292%,80.389404%,90.19928%);fill-opacity:1;" d="M 44.691406 8.070312 L 144.921875 8.070312 L 144.921875 81.421875 L 44.691406 81.421875 Z M 44.691406 8.070312 "/>
</g>
<path style=" stroke:none;fill-rule:nonzero;fill:rgb(69.018555%,75.289917%,84.709167%);fill-opacity:1;" d="M 111.199219 25.730469 C 111.199219 26.34375 111.140625 26.949219 111.019531 27.550781 C 110.902344 28.152344 110.726562 28.734375 110.492188 29.300781 C 110.257812 29.867188 109.96875 30.40625 109.628906 30.914062 C 109.289062 31.425781 108.902344 31.898438 108.46875 32.332031 C 108.035156 32.765625 107.5625 33.152344 107.054688 33.492188 C 106.542969 33.832031 106.007812 34.121094 105.441406 34.355469 C 104.875 34.589844 104.292969 34.765625 103.691406 34.886719 C 103.089844 35.003906 102.484375 35.066406 101.871094 35.066406 C 101.257812 35.066406 100.652344 35.003906 100.050781 34.886719 C 99.449219 34.765625 98.863281 34.589844 98.300781 34.355469 C 97.734375 34.121094 97.195312 33.832031 96.6875 33.492188 C 96.175781 33.152344 95.707031 32.765625 95.273438 32.332031 C 94.839844 31.898438 94.453125 31.429688 94.113281 30.917969 C 93.769531 30.410156 93.484375 29.871094 93.25 29.304688 C 93.015625 28.738281 92.835938 28.15625 92.71875 27.554688 C 92.597656 26.953125 92.539062 26.347656 92.539062 25.734375 C 92.539062 25.121094 92.597656 24.515625 92.71875 23.914062 C 92.835938 23.3125 93.015625 22.726562 93.25 22.164062 C 93.484375 21.597656 93.769531 21.058594 94.109375 20.550781 C 94.453125 20.039062 94.839844 19.566406 95.273438 19.136719 C 95.707031 18.703125 96.175781 18.316406 96.6875 17.972656 C 97.195312 17.632812 97.734375 17.347656 98.300781 17.113281 C 98.867188 16.878906 99.449219 16.699219 100.050781 16.582031 C 100.652344 16.460938 101.257812 16.402344 101.871094 16.402344 C 102.484375 16.402344 103.089844 16.460938 103.691406 16.582031 C 104.292969 16.699219 104.875 16.875 105.441406 17.109375 C 106.007812 17.34375 106.546875 17.632812 107.054688 17.972656 C 107.5625 18.3125 108.035156 18.699219 108.46875 19.132812 C 108.902344 19.566406 109.289062 20.035156 109.628906 20.546875 C 109.96875 21.054688 110.253906 21.59375 110.492188 22.160156 C 110.726562 22.726562 110.902344 23.308594 111.019531 23.910156 C 111.140625 24.511719 111.199219 25.117188 111.199219 25.730469 Z M 111.199219 25.730469 "/>
<g clip-path="url(#clip6)" clip-rule="nonzero">
<path style=" stroke:none;fill-rule:nonzero;fill:rgb(69.018555%,75.289917%,84.709167%);fill-opacity:1;" d="M 171.367188 81.417969 L 75.988281 81.417969 L 123.679688 33.722656 Z M 171.367188 81.417969 "/>
</g>
<g clip-path="url(#clip7)" clip-rule="nonzero">
<path style=" stroke:none;fill-rule:nonzero;fill:rgb(84.309387%,89.019775%,97.24884%);fill-opacity:1;" d="M 123.679688 81.417969 L 12.691406 81.417969 L 68.183594 25.921875 Z M 123.679688 81.417969 "/>
</g>
</g>
<mask id="mask1">
  <g filter="url(#alpha)">
<rect x="0" y="0" width="1440" height="809.999993" style="fill:rgb(0%,0%,0%);fill-opacity:0.4196;stroke:none;"/>
  </g>
</mask>
<clipPath id="clip9">
  <path d="M 37.476562 1.300781 L 152.109375 1.300781 L 152.109375 88.136719 L 37.476562 88.136719 Z M 37.476562 1.300781 "/>
</clipPath>
<clipPath id="clip10">
  <path d="M 73 31 L 152.109375 31 L 152.109375 88.136719 L 73 88.136719 Z M 73 31 "/>
</clipPath>
<clipPath id="clip11">
  <path d="M 37.476562 22 L 128 22 L 128 88.136719 L 37.476562 88.136719 Z M 37.476562 22 "/>
</clipPath>
<clipPath id="clip12">
  <path d="M 44.691406 8.207031 L 144.921875 8.207031 L 144.921875 81.554688 L 44.691406 81.554688 Z M 44.691406 8.207031 "/>
</clipPath>
<clipPath id="clip13">
  <path d="M 75 33 L 144.921875 33 L 144.921875 81.554688 L 75 81.554688 Z M 75 33 "/>
</clipPath>
<clipPath id="clip14">
  <path d="M 44.691406 26 L 124 26 L 124 81.554688 L 44.691406 81.554688 Z M 44.691406 26 "/>
</clipPath>
<clipPath id="clip8">
  <rect x="0" y="0" width="184" height="90"/>
</clipPath>
<g id="surface8" clip-path="url(#clip8)">
<path style=" stroke:none;fill-rule:nonzero;fill:rgb(100%,100%,100%);fill-opacity:1;" d="M 37.476562 1.300781 L 152.109375 1.300781 L 152.109375 88.136719 L 37.476562 88.136719 Z M 37.476562 1.300781 "/>
<g clip-path="url(#clip9)" clip-rule="nonzero">
<path style=" stroke:none;fill-rule:nonzero;fill:rgb(96.078491%,97.24884%,99.21875%);fill-opacity:1;" d="M 37.476562 1.300781 L 152.109375 1.300781 L 152.109375 88.136719 L 37.476562 88.136719 Z M 37.476562 1.300781 "/>
</g>
<path style=" stroke:none;fill-rule:nonzero;fill:rgb(100%,100%,100%);fill-opacity:1;" d="M 123.894531 19.792969 C 123.863281 20.683594 123.746094 21.5625 123.542969 22.429688 C 123.339844 23.296875 123.058594 24.136719 122.691406 24.945312 C 122.324219 25.757812 121.882812 26.527344 121.363281 27.25 C 120.847656 27.976562 120.265625 28.644531 119.617188 29.253906 C 118.972656 29.867188 118.269531 30.410156 117.515625 30.882812 C 116.761719 31.359375 115.972656 31.753906 115.140625 32.074219 C 114.308594 32.394531 113.453125 32.628906 112.578125 32.78125 C 111.699219 32.933594 110.816406 33 109.925781 32.980469 C 109.035156 32.957031 108.15625 32.851562 107.289062 32.660156 C 106.417969 32.464844 105.578125 32.191406 104.761719 31.835938 C 103.945312 31.476562 103.171875 31.042969 102.441406 30.535156 C 101.710938 30.027344 101.035156 29.453125 100.417969 28.8125 C 99.796875 28.171875 99.246094 27.476562 98.765625 26.730469 C 98.28125 25.980469 97.875 25.195312 97.546875 24.367188 C 97.21875 23.539062 96.972656 22.6875 96.8125 21.8125 C 96.648438 20.9375 96.570312 20.054688 96.582031 19.164062 C 96.59375 18.273438 96.6875 17.390625 96.871094 16.519531 C 97.054688 15.648438 97.320312 14.804688 97.667969 13.984375 C 98.015625 13.164062 98.4375 12.386719 98.9375 11.648438 C 99.4375 10.910156 100.003906 10.230469 100.636719 9.605469 C 101.269531 8.976562 101.960938 8.417969 102.703125 7.925781 C 103.445312 7.4375 104.226562 7.019531 105.050781 6.683594 C 105.875 6.34375 106.722656 6.089844 107.59375 5.917969 C 108.46875 5.742188 109.351562 5.65625 110.242188 5.65625 C 111.152344 5.675781 112.054688 5.777344 112.945312 5.972656 C 113.835938 6.167969 114.703125 6.445312 115.539062 6.808594 C 116.375 7.171875 117.167969 7.617188 117.917969 8.136719 C 118.667969 8.65625 119.359375 9.242188 119.992188 9.898438 C 120.625 10.554688 121.191406 11.269531 121.683594 12.035156 C 122.175781 12.800781 122.589844 13.609375 122.925781 14.457031 C 123.261719 15.308594 123.511719 16.179688 123.671875 17.078125 C 123.835938 17.976562 123.910156 18.882812 123.894531 19.792969 Z M 123.894531 19.792969 "/>
<g clip-path="url(#clip10)" clip-rule="nonzero">
<path style=" stroke:none;fill-rule:nonzero;fill:rgb(100%,100%,100%);fill-opacity:1;" d="M 182.351562 88.136719 L 73.273438 88.136719 L 127.8125 31.671875 Z M 182.351562 88.136719 "/>
</g>
<g clip-path="url(#clip11)" clip-rule="nonzero">
<path style=" stroke:none;fill-rule:nonzero;fill:rgb(100%,100%,100%);fill-opacity:1;" d="M 127.8125 88.136719 L 0.882812 88.136719 L 64.347656 22.429688 Z M 127.8125 88.136719 "/>
</g>
<g clip-path="url(#clip12)" clip-rule="nonzero">
<path style=" stroke:none;fill-rule:nonzero;fill:rgb(74.899292%,80.389404%,90.19928%);fill-opacity:1;" d="M 44.691406 8.207031 L 144.921875 8.207031 L 144.921875 81.554688 L 44.691406 81.554688 Z M 44.691406 8.207031 "/>
</g>
<path style=" stroke:none;fill-rule:nonzero;fill:rgb(69.018555%,75.289917%,84.709167%);fill-opacity:1;" d="M 111.199219 25.878906 C 111.199219 26.492188 111.140625 27.097656 111.019531 27.699219 C 110.902344 28.300781 110.726562 28.882812 110.492188 29.449219 C 110.257812 30.015625 109.96875 30.554688 109.628906 31.0625 C 109.289062 31.574219 108.902344 32.042969 108.46875 32.476562 C 108.035156 32.910156 107.5625 33.296875 107.054688 33.636719 C 106.542969 33.980469 106.007812 34.265625 105.441406 34.5 C 104.875 34.734375 104.292969 34.914062 103.691406 35.03125 C 103.089844 35.152344 102.480469 35.210938 101.871094 35.210938 C 101.257812 35.210938 100.648438 35.152344 100.050781 35.03125 C 99.449219 34.914062 98.863281 34.734375 98.300781 34.5 C 97.734375 34.265625 97.195312 33.980469 96.6875 33.640625 C 96.175781 33.300781 95.707031 32.910156 95.273438 32.480469 C 94.839844 32.046875 94.453125 31.574219 94.113281 31.066406 C 93.769531 30.554688 93.484375 30.015625 93.25 29.449219 C 93.015625 28.886719 92.835938 28.300781 92.71875 27.699219 C 92.597656 27.097656 92.539062 26.492188 92.539062 25.878906 C 92.539062 25.265625 92.597656 24.660156 92.71875 24.058594 C 92.835938 23.457031 93.015625 22.875 93.25 22.308594 C 93.484375 21.742188 93.769531 21.203125 94.113281 20.695312 C 94.453125 20.1875 94.839844 19.714844 95.273438 19.28125 C 95.707031 18.847656 96.175781 18.460938 96.6875 18.121094 C 97.195312 17.78125 97.734375 17.492188 98.300781 17.257812 C 98.867188 17.023438 99.449219 16.847656 100.050781 16.726562 C 100.652344 16.605469 101.257812 16.546875 101.871094 16.546875 C 102.484375 16.546875 103.089844 16.605469 103.691406 16.726562 C 104.292969 16.84375 104.875 17.023438 105.441406 17.257812 C 106.007812 17.492188 106.546875 17.777344 107.054688 18.117188 C 107.5625 18.457031 108.035156 18.84375 108.46875 19.277344 C 108.902344 19.710938 109.289062 20.183594 109.628906 20.691406 C 109.96875 21.203125 110.253906 21.738281 110.492188 22.304688 C 110.726562 22.871094 110.902344 23.457031 111.019531 24.054688 C 111.140625 24.65625 111.199219 25.265625 111.199219 25.878906 Z M 111.199219 25.878906 "/>
<g clip-path="url(#clip13)" clip-rule="nonzero">
<path style=" stroke:none;fill-rule:nonzero;fill:rgb(69.018555%,75.289917%,84.709167%);fill-opacity:1;" d="M 171.367188 81.554688 L 75.988281 81.554688 L 123.679688 33.859375 Z M 171.367188 81.554688 "/>
</g>
<g clip-path="url(#clip14)" clip-rule="nonzero">
<path style=" stroke:none;fill-rule:nonzero;fill:rgb(84.309387%,89.019775%,97.24884%);fill-opacity:1;" d="M 123.679688 81.554688 L 12.691406 81.554688 L 68.183594 26.058594 Z M 123.679688 81.554688 "/>
</g>
</g>
<mask id="mask2">
  <g filter="url(#alpha)">
<rect x="0" y="0" width="1440" height="809.999993" style="fill:rgb(0%,0%,0%);fill-opacity:0.4196;stroke:none;"/>
  </g>
</mask>
<clipPath id="clip16">
  <path d="M 37.476562 1.4375 L 152.109375 1.4375 L 152.109375 88.273438 L 37.476562 88.273438 Z M 37.476562 1.4375 "/>
</clipPath>
<clipPath id="clip17">
  <path d="M 73 31 L 152.109375 31 L 152.109375 88.273438 L 73 88.273438 Z M 73 31 "/>
</clipPath>
<clipPath id="clip18">
  <path d="M 37.476562 22 L 128 22 L 128 88.273438 L 37.476562 88.273438 Z M 37.476562 22 "/>
</clipPath>
<clipPath id="clip19">
  <path d="M 44.691406 8.34375 L 144.921875 8.34375 L 144.921875 81.695312 L 44.691406 81.695312 Z M 44.691406 8.34375 "/>
</clipPath>
<clipPath id="clip20">
  <path d="M 75 33 L 144.921875 33 L 144.921875 81.695312 L 75 81.695312 Z M 75 33 "/>
</clipPath>
<clipPath id="clip21">
  <path d="M 44.691406 26 L 124 26 L 124 81.695312 L 44.691406 81.695312 Z M 44.691406 26 "/>
</clipPath>
<clipPath id="clip15">
  <rect x="0" y="0" width="184" height="90"/>
</clipPath>
<g id="surface11" clip-path="url(#clip15)">
<path style=" stroke:none;fill-rule:nonzero;fill:rgb(100%,100%,100%);fill-opacity:1;" d="M 37.476562 1.4375 L 152.109375 1.4375 L 152.109375 88.273438 L 37.476562 88.273438 Z M 37.476562 1.4375 "/>
<g clip-path="url(#clip16)" clip-rule="nonzero">
<path style=" stroke:none;fill-rule:nonzero;fill:rgb(96.078491%,97.24884%,99.21875%);fill-opacity:1;" d="M 37.476562 1.4375 L 152.109375 1.4375 L 152.109375 88.273438 L 37.476562 88.273438 Z M 37.476562 1.4375 "/>
</g>
<path style=" stroke:none;fill-rule:nonzero;fill:rgb(100%,100%,100%);fill-opacity:1;" d="M 123.894531 19.9375 C 123.863281 20.828125 123.75 21.707031 123.546875 22.574219 C 123.34375 23.441406 123.0625 24.28125 122.695312 25.09375 C 122.328125 25.90625 121.886719 26.671875 121.371094 27.398438 C 120.855469 28.125 120.273438 28.792969 119.625 29.40625 C 118.980469 30.015625 118.277344 30.558594 117.523438 31.035156 C 116.773438 31.511719 115.980469 31.90625 115.148438 32.226562 C 114.316406 32.546875 113.464844 32.785156 112.585938 32.9375 C 111.707031 33.089844 110.824219 33.15625 109.933594 33.136719 C 109.042969 33.117188 108.164062 33.011719 107.296875 32.816406 C 106.425781 32.625 105.582031 32.351562 104.765625 31.996094 C 103.953125 31.636719 103.179688 31.203125 102.445312 30.695312 C 101.714844 30.1875 101.039062 29.613281 100.421875 28.972656 C 99.800781 28.332031 99.25 27.640625 98.769531 26.890625 C 98.285156 26.144531 97.878906 25.355469 97.550781 24.527344 C 97.21875 23.699219 96.972656 22.847656 96.8125 21.972656 C 96.648438 21.097656 96.570312 20.214844 96.582031 19.324219 C 96.59375 18.433594 96.6875 17.550781 96.871094 16.679688 C 97.054688 15.808594 97.316406 14.964844 97.664062 14.144531 C 98.011719 13.324219 98.4375 12.542969 98.9375 11.808594 C 99.4375 11.070312 100.003906 10.390625 100.636719 9.761719 C 101.269531 9.136719 101.957031 8.578125 102.699219 8.085938 C 103.441406 7.59375 104.226562 7.179688 105.046875 6.839844 C 105.871094 6.5 106.722656 6.246094 107.59375 6.074219 C 108.46875 5.902344 109.351562 5.816406 110.242188 5.816406 C 111.152344 5.832031 112.054688 5.9375 112.945312 6.128906 C 113.835938 6.324219 114.699219 6.601562 115.535156 6.964844 C 116.371094 7.328125 117.164062 7.769531 117.914062 8.289062 C 118.664062 8.808594 119.355469 9.398438 119.988281 10.050781 C 120.621094 10.707031 121.183594 11.417969 121.679688 12.183594 C 122.171875 12.953125 122.585938 13.757812 122.921875 14.605469 C 123.257812 15.453125 123.507812 16.328125 123.671875 17.222656 C 123.835938 18.121094 123.910156 19.027344 123.894531 19.9375 Z M 123.894531 19.9375 "/>
<g clip-path="url(#clip17)" clip-rule="nonzero">
<path style=" stroke:none;fill-rule:nonzero;fill:rgb(100%,100%,100%);fill-opacity:1;" d="M 182.351562 88.273438 L 73.273438 88.273438 L 127.8125 31.808594 Z M 182.351562 88.273438 "/>
</g>
<g clip-path="url(#clip18)" clip-rule="nonzero">
<path style=" stroke:none;fill-rule:nonzero;fill:rgb(100%,100%,100%);fill-opacity:1;" d="M 127.8125 88.273438 L 0.882812 88.273438 L 64.347656 22.570312 Z M 127.8125 88.273438 "/>
</g>
<g clip-path="url(#clip19)" clip-rule="nonzero">
<path style=" stroke:none;fill-rule:nonzero;fill:rgb(74.899292%,80.389404%,90.19928%);fill-opacity:1;" d="M 44.691406 8.34375 L 144.921875 8.34375 L 144.921875 81.695312 L 44.691406 81.695312 Z M 44.691406 8.34375 "/>
</g>
<path style=" stroke:none;fill-rule:nonzero;fill:rgb(69.018555%,75.289917%,84.709167%);fill-opacity:1;" d="M 111.199219 26 C 111.199219 26.613281 111.140625 27.222656 111.019531 27.824219 C 110.902344 28.425781 110.726562 29.007812 110.492188 29.574219 C 110.257812 30.140625 109.96875 30.679688 109.628906 31.1875 C 109.289062 31.699219 108.902344 32.171875 108.46875 32.605469 C 108.035156 33.035156 107.5625 33.425781 107.054688 33.765625 C 106.542969 34.105469 106.007812 34.394531 105.441406 34.628906 C 104.875 34.863281 104.292969 35.039062 103.691406 35.160156 C 103.089844 35.277344 102.484375 35.339844 101.871094 35.339844 C 101.257812 35.339844 100.652344 35.277344 100.050781 35.160156 C 99.449219 35.039062 98.863281 34.863281 98.300781 34.628906 C 97.734375 34.394531 97.195312 34.105469 96.6875 33.765625 C 96.175781 33.425781 95.707031 33.039062 95.273438 32.605469 C 94.839844 32.171875 94.453125 31.699219 94.113281 31.191406 C 93.769531 30.683594 93.484375 30.144531 93.25 29.578125 C 93.015625 29.011719 92.835938 28.429688 92.71875 27.828125 C 92.597656 27.226562 92.539062 26.617188 92.539062 26.007812 C 92.539062 25.394531 92.597656 24.785156 92.71875 24.1875 C 92.835938 23.585938 93.015625 23 93.25 22.433594 C 93.484375 21.871094 93.769531 21.332031 94.109375 20.820312 C 94.453125 20.3125 94.839844 19.839844 95.273438 19.40625 C 95.707031 18.972656 96.175781 18.585938 96.6875 18.246094 C 97.195312 17.90625 97.734375 17.621094 98.300781 17.382812 C 98.867188 17.148438 99.449219 16.972656 100.050781 16.855469 C 100.652344 16.734375 101.257812 16.675781 101.871094 16.675781 C 102.484375 16.675781 103.089844 16.734375 103.691406 16.855469 C 104.292969 16.972656 104.875 17.152344 105.441406 17.386719 C 106.007812 17.621094 106.546875 17.90625 107.054688 18.246094 C 107.5625 18.585938 108.035156 18.972656 108.46875 19.40625 C 108.902344 19.839844 109.289062 20.3125 109.628906 20.820312 C 109.96875 21.328125 110.257812 21.867188 110.492188 22.433594 C 110.726562 23 110.902344 23.582031 111.019531 24.183594 C 111.140625 24.78125 111.199219 25.390625 111.199219 26 Z M 111.199219 26 "/>
<g clip-path="url(#clip20)" clip-rule="nonzero">
<path style=" stroke:none;fill-rule:nonzero;fill:rgb(69.018555%,75.289917%,84.709167%);fill-opacity:1;" d="M 171.367188 81.695312 L 75.988281 81.695312 L 123.679688 33.996094 Z M 171.367188 81.695312 "/>
</g>
<g clip-path="url(#clip21)" clip-rule="nonzero">
<path style=" stroke:none;fill-rule:nonzero;fill:rgb(84.309387%,89.019775%,97.24884%);fill-opacity:1;" d="M 123.679688 81.695312 L 12.691406 81.695312 L 68.183594 26.191406 Z M 123.679688 81.695312 "/>
</g>
</g>
<clipPath id="clip22">
  <path d="M 702.859375 403.734375 L 858.492188 403.734375 L 858.492188 522.605469 L 702.859375 522.605469 Z M 702.859375 403.734375 "/>
</clipPath>
<clipPath id="clip23">
  <path d="M 702.859375 453 L 803 453 L 803 522.605469 L 702.859375 522.605469 Z M 702.859375 453 "/>
</clipPath>
<clipPath id="clip24">
  <path d="M 730 440 L 858.492188 440 L 858.492188 522.605469 L 730 522.605469 Z M 730 440 "/>
</clipPath>
</defs>
<g id="surface1">
<rect x="0" y="0" width="1440" height="809.999993" style="fill:rgb(100%,100%,100%);fill-opacity:1;stroke:none;"/>
<rect x="0" y="0" width="1440" height="809.999993" style="fill:rgb(100%,100%,100%);fill-opacity:1;stroke:none;"/>
<path style=" stroke:none;fill-rule:nonzero;fill:rgb(0.389099%,78.819275%,61.178589%);fill-opacity:1;" d="M 1015.6875 696.9375 C 1015.6875 696.9375 1060.042969 678.109375 1057.617188 662.636719 C 1055.191406 647.164062 1012.839844 642.628906 1012.839844 642.628906 C 1012.839844 642.628906 1041.886719 559.335938 1017.605469 551.15625 C 993.320312 542.972656 970.679688 592.785156 970.679688 592.785156 C 970.679688 592.785156 972.457031 513.996094 937.574219 513.996094 C 902.6875 513.996094 906.90625 599.027344 906.90625 599.027344 C 906.90625 599.027344 875.382812 557.1875 854.6875 569.261719 C 833.996094 581.332031 871.898438 642.902344 871.898438 642.902344 C 871.898438 642.902344 839.976562 635.554688 830.871094 648.332031 C 821.765625 661.109375 863.675781 689.574219 872.800781 696.925781 Z M 1015.6875 696.9375 "/>
<path style=" stroke:none;fill-rule:nonzero;fill:rgb(0%,72.549438%,56.079102%);fill-opacity:1;" d="M 935.332031 697.222656 C 935.113281 696.609375 912.496094 635.710938 880.519531 609.660156 L 881.570312 608.355469 C 913.902344 634.695312 936.671875 696.023438 936.894531 696.640625 Z M 935.332031 697.222656 "/>
<path style=" stroke:none;fill-rule:nonzero;fill:rgb(0%,72.549438%,56.079102%);fill-opacity:1;" d="M 929.574219 679.578125 L 927.957031 679.160156 C 928.128906 678.511719 944.746094 613.109375 935.289062 557.191406 L 936.9375 556.914062 C 946.449219 613.179688 929.742188 678.921875 929.574219 679.578125 Z M 929.574219 679.578125 "/>
<path style=" stroke:none;fill-rule:nonzero;fill:rgb(0%,72.549438%,56.079102%);fill-opacity:1;" d="M 934.492188 689.914062 L 933.328125 688.71875 C 934.015625 688.046875 1002.125 621.144531 1008.90625 569.042969 L 1010.558594 569.261719 C 1003.707031 621.925781 935.183594 689.238281 934.492188 689.914062 Z M 934.492188 689.914062 "/>
<path style=" stroke:none;fill-rule:nonzero;fill:rgb(0%,72.549438%,56.079102%);fill-opacity:1;" d="M 946.007812 677.855469 L 945.117188 676.445312 C 945.414062 676.253906 952.636719 671.757812 967.597656 668.027344 C 981.351562 664.601562 1004.511719 661.242188 1036.742188 664.703125 L 1036.566406 666.363281 C 1004.574219 662.925781 981.621094 666.25 968 669.648438 C 960.273438 671.332031 952.945312 674.066406 946.007812 677.855469 Z M 946.007812 677.855469 "/>
<path style=" stroke:none;fill-rule:nonzero;fill:rgb(0%,72.549438%,56.079102%);fill-opacity:1;" d="M 931.367188 687.117188 C 930.976562 686.804688 892.042969 656.261719 854.058594 662.296875 L 853.796875 660.648438 C 892.507812 654.519531 932.007812 685.496094 932.40625 685.808594 Z M 931.367188 687.117188 "/>
<path style=" stroke:none;fill-rule:nonzero;fill:rgb(96.078491%,97.24884%,99.21875%);fill-opacity:1;" d="M 791.058594 706.007812 C 863.210938 706.925781 955.582031 708.617188 1023.054688 713.179688 C 1097.925781 718.257812 1153.238281 727.699219 1126.40625 734.539062 C 1095.832031 742.328125 964.1875 745.574219 906.757812 755.472656 C 839.203125 767.066406 857.8125 791.125 790.988281 800.03125 C 716.734375 809.992188 572.113281 797.203125 471.160156 786.003906 C 382.109375 776.152344 325.527344 767.390625 240.582031 759.378906 C 164.894531 752.179688 65.902344 745.574219 69.324219 736.625 C 72.28125 728.890625 152.125 719.972656 224.59375 712.855469 C 287.328125 706.710938 347.121094 701.660156 407.671875 700.578125 C 466.574219 699.539062 537.542969 702.035156 600.921875 703.449219 C 666.597656 704.921875 720.464844 705.109375 791.058594 706.007812 Z M 791.058594 706.007812 "/>
<path style=" stroke:none;fill-rule:nonzero;fill:rgb(96.078491%,97.24884%,99.21875%);fill-opacity:1;" d="M 757.425781 87.289062 C 831.242188 98.609375 921.300781 118.863281 969.691406 169.652344 C 1017.917969 220.4375 1024.476562 301.753906 975.59375 352.097656 C 926.710938 402.441406 822.546875 421.5 765.625 473.925781 C 708.707031 526.203125 699.027344 611.691406 659.332031 637.457031 C 619.632812 663.371094 549.753906 629.5625 493.492188 595.605469 C 437.0625 561.648438 394.246094 527.542969 328.796875 492.542969 C 263.507812 457.394531 175.585938 421.492188 147.042969 366.246094 C 118.5 311 149.503906 236.375 187.234375 166.226562 C 225.125 96.078125 269.90625 30.25 334.539062 15.058594 C 399.167969 0.015625 483.8125 35.460938 554.839844 54.523438 C 625.867188 73.589844 683.609375 75.972656 757.425781 87.289062 Z M 757.425781 87.289062 "/>
<path style=" stroke:none;fill-rule:nonzero;fill:rgb(91.369629%,94.119263%,98.429871%);fill-opacity:1;" d="M 917.378906 217.78125 L 269.410156 217.78125 L 269.410156 599.53125 C 269.410156 600.199219 269.476562 600.863281 269.605469 601.519531 C 269.738281 602.175781 269.929688 602.8125 270.1875 603.429688 C 270.441406 604.046875 270.753906 604.632812 271.125 605.1875 C 271.496094 605.742188 271.921875 606.257812 272.390625 606.730469 C 272.863281 607.203125 273.378906 607.625 273.933594 607.996094 C 274.492188 608.367188 275.078125 608.679688 275.695312 608.9375 C 276.3125 609.191406 276.949219 609.386719 277.605469 609.515625 C 278.257812 609.648438 278.921875 609.710938 279.589844 609.710938 L 907.199219 609.710938 C 907.867188 609.710938 908.527344 609.648438 909.183594 609.515625 C 909.839844 609.386719 910.476562 609.195312 911.09375 608.9375 C 911.710938 608.683594 912.296875 608.367188 912.851562 607.996094 C 913.410156 607.625 913.921875 607.203125 914.394531 606.730469 C 914.867188 606.257812 915.289062 605.746094 915.660156 605.1875 C 916.035156 604.632812 916.347656 604.046875 916.601562 603.429688 C 916.859375 602.8125 917.050781 602.175781 917.183594 601.519531 C 917.3125 600.863281 917.378906 600.203125 917.378906 599.53125 L 917.378906 217.78125 "/>
<path style=" stroke:none;fill-rule:nonzero;fill:rgb(74.899292%,80.389404%,90.19928%);fill-opacity:1;" d="M 907.199219 196.125 L 279.601562 196.125 C 278.933594 196.125 278.269531 196.191406 277.613281 196.320312 C 276.960938 196.453125 276.324219 196.644531 275.707031 196.898438 C 275.089844 197.15625 274.5 197.46875 273.945312 197.839844 C 273.390625 198.210938 272.875 198.632812 272.402344 199.105469 C 271.929688 199.578125 271.507812 200.09375 271.136719 200.648438 C 270.765625 201.207031 270.453125 201.792969 270.195312 202.410156 C 269.941406 203.027344 269.75 203.664062 269.617188 204.320312 C 269.488281 204.972656 269.421875 205.636719 269.421875 206.304688 L 269.421875 217.78125 L 917.378906 217.78125 L 917.378906 206.304688 C 917.378906 205.636719 917.3125 204.972656 917.183594 204.320312 C 917.050781 203.664062 916.859375 203.027344 916.601562 202.410156 C 916.347656 201.792969 916.035156 201.207031 915.664062 200.648438 C 915.292969 200.09375 914.871094 199.578125 914.398438 199.105469 C 913.925781 198.632812 913.410156 198.210938 912.855469 197.839844 C 912.296875 197.46875 911.710938 197.15625 911.09375 196.898438 C 910.476562 196.644531 909.839844 196.453125 909.183594 196.320312 C 908.53125 196.191406 907.867188 196.125 907.199219 196.125 Z M 907.199219 196.125 "/>
<path style=" stroke:none;fill-rule:nonzero;fill:rgb(69.018555%,75.289917%,84.709167%);fill-opacity:1;" d="M 287.539062 207.847656 C 287.539062 208.308594 287.449219 208.753906 287.273438 209.183594 C 287.097656 209.609375 286.84375 209.984375 286.515625 210.3125 C 286.191406 210.640625 285.8125 210.890625 285.386719 211.070312 C 284.957031 211.246094 284.515625 211.335938 284.050781 211.335938 C 283.589844 211.335938 283.144531 211.246094 282.71875 211.070312 C 282.289062 210.890625 281.914062 210.640625 281.585938 210.3125 C 281.257812 209.984375 281.007812 209.609375 280.832031 209.183594 C 280.652344 208.753906 280.566406 208.308594 280.566406 207.847656 C 280.566406 207.386719 280.652344 206.941406 280.832031 206.511719 C 281.007812 206.085938 281.257812 205.707031 281.585938 205.382812 C 281.914062 205.054688 282.289062 204.800781 282.71875 204.625 C 283.144531 204.449219 283.589844 204.359375 284.050781 204.359375 C 284.515625 204.359375 284.957031 204.449219 285.386719 204.625 C 285.8125 204.800781 286.191406 205.054688 286.515625 205.382812 C 286.84375 205.707031 287.097656 206.085938 287.273438 206.511719 C 287.449219 206.941406 287.539062 207.386719 287.539062 207.847656 Z M 287.539062 207.847656 "/>
<path style=" stroke:none;fill-rule:nonzero;fill:rgb(69.018555%,75.289917%,84.709167%);fill-opacity:1;" d="M 299.761719 207.847656 C 299.761719 208.308594 299.671875 208.753906 299.496094 209.183594 C 299.320312 209.609375 299.066406 209.984375 298.738281 210.3125 C 298.414062 210.640625 298.035156 210.890625 297.609375 211.070312 C 297.179688 211.246094 296.738281 211.335938 296.273438 211.335938 C 295.8125 211.335938 295.367188 211.246094 294.941406 211.070312 C 294.511719 210.890625 294.136719 210.640625 293.808594 210.3125 C 293.480469 209.984375 293.230469 209.609375 293.050781 209.183594 C 292.875 208.753906 292.789062 208.308594 292.789062 207.847656 C 292.789062 207.386719 292.875 206.941406 293.050781 206.511719 C 293.230469 206.085938 293.480469 205.707031 293.808594 205.382812 C 294.136719 205.054688 294.511719 204.800781 294.941406 204.625 C 295.367188 204.449219 295.8125 204.359375 296.273438 204.359375 C 296.738281 204.359375 297.179688 204.449219 297.609375 204.625 C 298.035156 204.800781 298.414062 205.054688 298.738281 205.382812 C 299.066406 205.707031 299.320312 206.085938 299.496094 206.511719 C 299.671875 206.941406 299.761719 207.386719 299.761719 207.847656 Z M 299.761719 207.847656 "/>
<path style=" stroke:none;fill-rule:nonzero;fill:rgb(69.018555%,75.289917%,84.709167%);fill-opacity:1;" d="M 311.984375 207.847656 C 311.984375 208.308594 311.898438 208.753906 311.71875 209.183594 C 311.542969 209.609375 311.289062 209.984375 310.964844 210.3125 C 310.636719 210.640625 310.261719 210.890625 309.832031 211.070312 C 309.40625 211.246094 308.960938 211.335938 308.5 211.335938 C 308.035156 211.335938 307.589844 211.246094 307.164062 211.070312 C 306.738281 210.890625 306.359375 210.640625 306.03125 210.3125 C 305.707031 209.984375 305.453125 209.609375 305.277344 209.183594 C 305.101562 208.753906 305.011719 208.308594 305.011719 207.847656 C 305.011719 207.386719 305.101562 206.941406 305.277344 206.511719 C 305.453125 206.085938 305.707031 205.707031 306.03125 205.382812 C 306.359375 205.054688 306.738281 204.800781 307.164062 204.625 C 307.589844 204.449219 308.035156 204.359375 308.5 204.359375 C 308.960938 204.359375 309.40625 204.449219 309.832031 204.625 C 310.261719 204.800781 310.636719 205.054688 310.964844 205.382812 C 311.289062 205.707031 311.542969 206.085938 311.71875 206.511719 C 311.898438 206.941406 311.984375 207.386719 311.984375 207.847656 Z M 311.984375 207.847656 "/>
<use xlink:href="#surface5" transform="matrix(1,0,0,1,684,265)" mask="url(#mask0)"/>
<use xlink:href="#surface8" transform="matrix(1,0,0,1,684,365)" mask="url(#mask1)"/>
<use xlink:href="#surface11" transform="matrix(1,0,0,1,684,465)" mask="url(#mask2)"/>
<path style=" stroke:none;fill-rule:nonzero;fill:rgb(69.018555%,75.289917%,84.709167%);fill-opacity:1;" d="M 329.1875 713.390625 C 329 713.390625 328.816406 713.371094 328.636719 713.328125 C 328.457031 713.285156 328.285156 713.222656 328.117188 713.140625 C 327.949219 713.058594 327.796875 712.960938 327.652344 712.84375 C 327.507812 712.726562 327.378906 712.59375 327.265625 712.445312 C 327.152344 712.300781 327.058594 712.140625 326.980469 711.972656 C 326.902344 711.804688 326.847656 711.628906 326.808594 711.449219 C 326.773438 711.265625 326.753906 711.082031 326.761719 710.898438 C 326.765625 710.710938 326.792969 710.527344 326.839844 710.347656 L 438.910156 285.191406 L 374.753906 285.191406 L 262.34375 711.574219 C 262.261719 711.886719 262.125 712.171875 261.929688 712.425781 C 261.734375 712.683594 261.496094 712.890625 261.21875 713.054688 C 260.941406 713.214844 260.644531 713.320312 260.324219 713.363281 C 260.003906 713.40625 259.691406 713.386719 259.378906 713.304688 C 259.066406 713.222656 258.785156 713.082031 258.527344 712.890625 C 258.273438 712.695312 258.0625 712.457031 257.898438 712.179688 C 257.738281 711.902344 257.636719 711.601562 257.59375 711.285156 C 257.546875 710.964844 257.566406 710.648438 257.648438 710.339844 L 371 280.324219 L 445.210938 280.324219 L 331.53125 711.574219 C 331.464844 711.835938 331.359375 712.078125 331.210938 712.300781 C 331.0625 712.523438 330.882812 712.71875 330.667969 712.882812 C 330.457031 713.046875 330.222656 713.171875 329.96875 713.261719 C 329.714844 713.347656 329.457031 713.390625 329.1875 713.390625 Z M 329.1875 713.390625 "/>
<path style=" stroke:none;fill-rule:nonzero;fill:rgb(69.018555%,75.289917%,84.709167%);fill-opacity:1;" d="M 430.722656 328.203125 L 361.53125 328.203125 C 361.203125 328.210938 360.886719 328.15625 360.582031 328.039062 C 360.273438 327.921875 360.003906 327.746094 359.769531 327.515625 C 359.53125 327.289062 359.351562 327.023438 359.222656 326.71875 C 359.09375 326.417969 359.03125 326.101562 359.03125 325.773438 C 359.03125 325.445312 359.09375 325.128906 359.222656 324.828125 C 359.351562 324.527344 359.53125 324.261719 359.769531 324.03125 C 360.003906 323.800781 360.273438 323.628906 360.582031 323.507812 C 360.886719 323.390625 361.203125 323.335938 361.53125 323.347656 L 430.722656 323.347656 C 431.035156 323.355469 431.339844 323.425781 431.628906 323.550781 C 431.917969 323.679688 432.171875 323.855469 432.390625 324.082031 C 432.613281 324.308594 432.78125 324.570312 432.898438 324.863281 C 433.019531 325.152344 433.078125 325.457031 433.078125 325.773438 C 433.078125 326.089844 433.019531 326.394531 432.898438 326.6875 C 432.78125 326.980469 432.613281 327.238281 432.390625 327.464844 C 432.171875 327.691406 431.917969 327.871094 431.628906 327.996094 C 431.339844 328.125 431.035156 328.191406 430.722656 328.203125 Z M 430.722656 328.203125 "/>
<path style=" stroke:none;fill-rule:nonzero;fill:rgb(69.018555%,75.289917%,84.709167%);fill-opacity:1;" d="M 419.382812 371.21875 L 350.191406 371.21875 C 349.875 371.210938 349.574219 371.144531 349.285156 371.015625 C 348.996094 370.886719 348.742188 370.710938 348.523438 370.484375 C 348.300781 370.257812 348.132812 369.996094 348.015625 369.707031 C 347.894531 369.414062 347.835938 369.109375 347.835938 368.792969 C 347.835938 368.476562 347.894531 368.171875 348.015625 367.878906 C 348.132812 367.585938 348.300781 367.328125 348.523438 367.101562 C 348.742188 366.875 348.996094 366.695312 349.285156 366.570312 C 349.574219 366.441406 349.875 366.375 350.191406 366.363281 L 419.382812 366.363281 C 419.710938 366.355469 420.027344 366.410156 420.332031 366.527344 C 420.640625 366.648438 420.910156 366.820312 421.144531 367.050781 C 421.378906 367.277344 421.5625 367.542969 421.691406 367.847656 C 421.816406 368.148438 421.882812 368.464844 421.882812 368.792969 C 421.882812 369.121094 421.816406 369.4375 421.691406 369.738281 C 421.5625 370.042969 421.378906 370.308594 421.144531 370.535156 C 420.910156 370.765625 420.640625 370.9375 420.332031 371.058594 C 420.027344 371.175781 419.710938 371.230469 419.382812 371.21875 Z M 419.382812 371.21875 "/>
<path style=" stroke:none;fill-rule:nonzero;fill:rgb(69.018555%,75.289917%,84.709167%);fill-opacity:1;" d="M 408.042969 414.238281 L 338.855469 414.238281 C 338.527344 414.25 338.207031 414.195312 337.902344 414.074219 C 337.597656 413.957031 337.324219 413.78125 337.089844 413.554688 C 336.855469 413.324219 336.671875 413.058594 336.542969 412.757812 C 336.417969 412.453125 336.351562 412.140625 336.351562 411.8125 C 336.351562 411.480469 336.417969 411.167969 336.542969 410.863281 C 336.671875 410.5625 336.855469 410.296875 337.089844 410.066406 C 337.324219 409.839844 337.597656 409.664062 337.902344 409.546875 C 338.207031 409.425781 338.527344 409.371094 338.855469 409.382812 L 408.042969 409.382812 C 408.359375 409.390625 408.660156 409.460938 408.949219 409.589844 C 409.238281 409.714844 409.492188 409.890625 409.714844 410.117188 C 409.933594 410.34375 410.101562 410.605469 410.222656 410.898438 C 410.339844 411.191406 410.398438 411.496094 410.398438 411.8125 C 410.398438 412.125 410.339844 412.429688 410.222656 412.722656 C 410.101562 413.015625 409.933594 413.277344 409.714844 413.503906 C 409.492188 413.730469 409.238281 413.90625 408.949219 414.035156 C 408.660156 414.160156 408.359375 414.230469 408.042969 414.238281 Z M 408.042969 414.238281 "/>
<path style=" stroke:none;fill-rule:nonzero;fill:rgb(69.018555%,75.289917%,84.709167%);fill-opacity:1;" d="M 396.695312 457.253906 L 327.515625 457.253906 C 327.199219 457.246094 326.894531 457.175781 326.605469 457.050781 C 326.316406 456.921875 326.0625 456.746094 325.84375 456.519531 C 325.625 456.292969 325.453125 456.03125 325.335938 455.738281 C 325.21875 455.445312 325.15625 455.144531 325.15625 454.828125 C 325.15625 454.511719 325.21875 454.207031 325.335938 453.914062 C 325.453125 453.621094 325.625 453.363281 325.84375 453.136719 C 326.0625 452.910156 326.316406 452.730469 326.605469 452.605469 C 326.894531 452.476562 327.199219 452.410156 327.515625 452.398438 L 396.695312 452.398438 C 397.023438 452.390625 397.339844 452.445312 397.648438 452.5625 C 397.953125 452.679688 398.226562 452.855469 398.460938 453.082031 C 398.695312 453.3125 398.878906 453.578125 399.007812 453.878906 C 399.132812 454.183594 399.199219 454.5 399.199219 454.828125 C 399.199219 455.15625 399.132812 455.472656 399.007812 455.773438 C 398.878906 456.074219 398.695312 456.339844 398.460938 456.570312 C 398.226562 456.796875 397.953125 456.972656 397.648438 457.089844 C 397.339844 457.210938 397.023438 457.265625 396.695312 457.253906 Z M 396.695312 457.253906 "/>
<path style=" stroke:none;fill-rule:nonzero;fill:rgb(69.018555%,75.289917%,84.709167%);fill-opacity:1;" d="M 385.363281 500.269531 L 316.175781 500.269531 C 315.847656 500.28125 315.53125 500.226562 315.222656 500.105469 C 314.917969 499.988281 314.648438 499.816406 314.410156 499.585938 C 314.175781 499.355469 313.996094 499.089844 313.867188 498.789062 C 313.738281 498.488281 313.675781 498.171875 313.675781 497.84375 C 313.675781 497.515625 313.738281 497.199219 313.867188 496.898438 C 313.996094 496.59375 314.175781 496.328125 314.410156 496.101562 C 314.648438 495.871094 314.917969 495.699219 315.222656 495.578125 C 315.53125 495.460938 315.847656 495.40625 316.175781 495.414062 L 385.363281 495.414062 C 385.679688 495.425781 385.984375 495.492188 386.273438 495.621094 C 386.5625 495.746094 386.816406 495.925781 387.035156 496.152344 C 387.253906 496.378906 387.425781 496.636719 387.542969 496.929688 C 387.660156 497.222656 387.722656 497.527344 387.722656 497.84375 C 387.722656 498.160156 387.660156 498.464844 387.542969 498.753906 C 387.425781 499.046875 387.253906 499.308594 387.035156 499.535156 C 386.816406 499.761719 386.5625 499.9375 386.273438 500.066406 C 385.984375 500.191406 385.679688 500.261719 385.363281 500.269531 Z M 385.363281 500.269531 "/>
<path style=" stroke:none;fill-rule:nonzero;fill:rgb(69.018555%,75.289917%,84.709167%);fill-opacity:1;" d="M 374.023438 543.289062 L 304.835938 543.289062 C 304.519531 543.28125 304.21875 543.210938 303.929688 543.082031 C 303.640625 542.957031 303.386719 542.777344 303.164062 542.550781 C 302.945312 542.324219 302.777344 542.066406 302.660156 541.773438 C 302.539062 541.480469 302.480469 541.175781 302.480469 540.859375 C 302.480469 540.546875 302.539062 540.242188 302.660156 539.949219 C 302.777344 539.65625 302.945312 539.394531 303.164062 539.167969 C 303.386719 538.941406 303.640625 538.765625 303.929688 538.636719 C 304.21875 538.511719 304.519531 538.441406 304.835938 538.433594 L 374.023438 538.433594 C 374.351562 538.421875 374.671875 538.476562 374.976562 538.597656 C 375.28125 538.714844 375.554688 538.890625 375.789062 539.117188 C 376.023438 539.347656 376.207031 539.613281 376.335938 539.914062 C 376.460938 540.21875 376.527344 540.53125 376.527344 540.859375 C 376.527344 541.191406 376.460938 541.503906 376.335938 541.808594 C 376.207031 542.109375 376.023438 542.375 375.789062 542.605469 C 375.554688 542.832031 375.28125 543.007812 374.976562 543.125 C 374.671875 543.246094 374.351562 543.300781 374.023438 543.289062 Z M 374.023438 543.289062 "/>
<path style=" stroke:none;fill-rule:nonzero;fill:rgb(69.018555%,75.289917%,84.709167%);fill-opacity:1;" d="M 362.6875 586.304688 L 293.503906 586.304688 C 293.175781 586.316406 292.859375 586.261719 292.550781 586.140625 C 292.246094 586.023438 291.976562 585.847656 291.738281 585.621094 C 291.503906 585.390625 291.324219 585.125 291.195312 584.824219 C 291.066406 584.519531 291.003906 584.207031 291.003906 583.878906 C 291.003906 583.550781 291.066406 583.234375 291.195312 582.929688 C 291.324219 582.628906 291.503906 582.363281 291.738281 582.132812 C 291.976562 581.90625 292.246094 581.730469 292.550781 581.613281 C 292.859375 581.492188 293.175781 581.4375 293.503906 581.449219 L 362.691406 581.449219 C 363.007812 581.457031 363.3125 581.527344 363.601562 581.652344 C 363.890625 581.78125 364.144531 581.957031 364.363281 582.183594 C 364.582031 582.410156 364.753906 582.671875 364.871094 582.964844 C 364.988281 583.257812 365.050781 583.5625 365.050781 583.878906 C 365.050781 584.191406 364.988281 584.496094 364.871094 584.789062 C 364.753906 585.082031 364.582031 585.34375 364.363281 585.570312 C 364.144531 585.796875 363.890625 585.972656 363.601562 586.101562 C 363.3125 586.226562 363.007812 586.296875 362.691406 586.304688 Z M 362.6875 586.304688 "/>
<path style=" stroke:none;fill-rule:nonzero;fill:rgb(69.018555%,75.289917%,84.709167%);fill-opacity:1;" d="M 351.347656 629.324219 L 282.15625 629.324219 C 281.839844 629.3125 281.539062 629.246094 281.25 629.117188 C 280.960938 628.992188 280.707031 628.8125 280.488281 628.585938 C 280.269531 628.359375 280.097656 628.101562 279.980469 627.808594 C 279.859375 627.515625 279.800781 627.210938 279.800781 626.894531 C 279.800781 626.578125 279.859375 626.273438 279.980469 625.984375 C 280.097656 625.691406 280.269531 625.429688 280.488281 625.203125 C 280.707031 624.976562 280.960938 624.800781 281.25 624.671875 C 281.539062 624.546875 281.839844 624.476562 282.15625 624.46875 L 351.347656 624.46875 C 351.660156 624.476562 351.964844 624.546875 352.253906 624.671875 C 352.542969 624.800781 352.796875 624.976562 353.015625 625.203125 C 353.234375 625.429688 353.40625 625.691406 353.523438 625.984375 C 353.640625 626.273438 353.703125 626.578125 353.703125 626.894531 C 353.703125 627.210938 353.640625 627.515625 353.523438 627.808594 C 353.40625 628.101562 353.234375 628.359375 353.015625 628.585938 C 352.796875 628.8125 352.542969 628.992188 352.253906 629.117188 C 351.964844 629.246094 351.660156 629.3125 351.347656 629.324219 Z M 351.347656 629.324219 "/>
<path style=" stroke:none;fill-rule:nonzero;fill:rgb(69.018555%,75.289917%,84.709167%);fill-opacity:1;" d="M 340.007812 672.339844 L 270.820312 672.339844 C 270.496094 672.339844 270.1875 672.277344 269.890625 672.15625 C 269.59375 672.03125 269.332031 671.855469 269.101562 671.628906 C 268.875 671.402344 268.699219 671.136719 268.578125 670.839844 C 268.453125 670.542969 268.390625 670.234375 268.390625 669.914062 C 268.390625 669.589844 268.453125 669.28125 268.578125 668.984375 C 268.699219 668.6875 268.875 668.421875 269.101562 668.195312 C 269.332031 667.96875 269.59375 667.792969 269.890625 667.671875 C 270.1875 667.546875 270.496094 667.484375 270.820312 667.484375 L 340.007812 667.484375 C 340.328125 667.484375 340.640625 667.546875 340.9375 667.671875 C 341.234375 667.792969 341.496094 667.96875 341.722656 668.195312 C 341.953125 668.421875 342.125 668.6875 342.25 668.984375 C 342.371094 669.28125 342.433594 669.589844 342.433594 669.914062 C 342.433594 670.234375 342.371094 670.542969 342.25 670.839844 C 342.125 671.136719 341.953125 671.402344 341.722656 671.628906 C 341.496094 671.855469 341.234375 672.03125 340.9375 672.15625 C 340.640625 672.277344 340.328125 672.339844 340.007812 672.339844 Z M 340.007812 672.339844 "/>
<path style=" stroke:none;fill-rule:nonzero;fill:rgb(74.899292%,80.389404%,90.19928%);fill-opacity:1;" d="M 588.457031 713.390625 C 588.191406 713.390625 587.929688 713.347656 587.675781 713.261719 C 587.421875 713.175781 587.1875 713.050781 586.976562 712.886719 C 586.765625 712.722656 586.582031 712.527344 586.4375 712.304688 C 586.289062 712.082031 586.179688 711.839844 586.113281 711.582031 L 473.710938 285.1875 L 409.546875 285.1875 L 521.613281 710.34375 C 521.695312 710.65625 521.714844 710.972656 521.671875 711.289062 C 521.628906 711.609375 521.523438 711.90625 521.363281 712.1875 C 521.199219 712.464844 520.992188 712.699219 520.734375 712.894531 C 520.480469 713.089844 520.195312 713.230469 519.882812 713.3125 C 519.574219 713.394531 519.257812 713.414062 518.9375 713.367188 C 518.621094 713.324219 518.320312 713.222656 518.042969 713.058594 C 517.765625 712.898438 517.527344 712.6875 517.332031 712.433594 C 517.140625 712.175781 517 711.894531 516.917969 711.582031 L 403.242188 280.332031 L 477.457031 280.332031 L 590.804688 710.34375 C 590.851562 710.523438 590.878906 710.707031 590.882812 710.894531 C 590.890625 711.078125 590.871094 711.261719 590.835938 711.445312 C 590.796875 711.625 590.742188 711.800781 590.664062 711.96875 C 590.585938 712.136719 590.492188 712.296875 590.378906 712.441406 C 590.265625 712.589844 590.136719 712.722656 589.992188 712.839844 C 589.847656 712.957031 589.695312 713.054688 589.527344 713.136719 C 589.359375 713.21875 589.1875 713.28125 589.007812 713.324219 C 588.828125 713.367188 588.644531 713.386719 588.457031 713.386719 Z M 588.457031 713.390625 "/>
<path style=" stroke:none;fill-rule:nonzero;fill:rgb(74.899292%,80.389404%,90.19928%);fill-opacity:1;" d="M 486.921875 328.203125 L 417.734375 328.203125 C 417.417969 328.191406 417.117188 328.125 416.828125 327.996094 C 416.539062 327.871094 416.285156 327.691406 416.0625 327.464844 C 415.84375 327.238281 415.675781 326.980469 415.554688 326.6875 C 415.4375 326.394531 415.378906 326.089844 415.378906 325.773438 C 415.378906 325.457031 415.4375 325.152344 415.554688 324.863281 C 415.675781 324.570312 415.84375 324.308594 416.0625 324.082031 C 416.285156 323.855469 416.539062 323.679688 416.828125 323.550781 C 417.117188 323.425781 417.417969 323.355469 417.734375 323.347656 L 486.921875 323.347656 C 487.238281 323.355469 487.542969 323.425781 487.828125 323.550781 C 488.117188 323.679688 488.375 323.855469 488.59375 324.082031 C 488.8125 324.308594 488.984375 324.570312 489.101562 324.863281 C 489.21875 325.152344 489.277344 325.457031 489.277344 325.773438 C 489.277344 326.089844 489.21875 326.394531 489.101562 326.6875 C 488.984375 326.980469 488.8125 327.238281 488.59375 327.464844 C 488.375 327.691406 488.117188 327.871094 487.828125 327.996094 C 487.542969 328.125 487.238281 328.191406 486.921875 328.203125 Z M 486.921875 328.203125 "/>
<path style=" stroke:none;fill-rule:nonzero;fill:rgb(74.899292%,80.389404%,90.19928%);fill-opacity:1;" d="M 498.261719 371.21875 L 429.066406 371.21875 C 428.738281 371.230469 428.421875 371.175781 428.113281 371.058594 C 427.808594 370.9375 427.539062 370.765625 427.300781 370.535156 C 427.066406 370.308594 426.886719 370.042969 426.757812 369.738281 C 426.628906 369.4375 426.566406 369.121094 426.566406 368.792969 C 426.566406 368.464844 426.628906 368.148438 426.757812 367.847656 C 426.886719 367.542969 427.066406 367.277344 427.300781 367.050781 C 427.539062 366.820312 427.808594 366.648438 428.113281 366.527344 C 428.421875 366.410156 428.738281 366.355469 429.066406 366.363281 L 498.253906 366.363281 C 498.582031 366.355469 498.898438 366.410156 499.203125 366.527344 C 499.511719 366.648438 499.78125 366.820312 500.015625 367.050781 C 500.253906 367.277344 500.433594 367.542969 500.5625 367.847656 C 500.691406 368.148438 500.753906 368.464844 500.753906 368.792969 C 500.753906 369.121094 500.691406 369.4375 500.5625 369.738281 C 500.433594 370.042969 500.253906 370.308594 500.015625 370.535156 C 499.78125 370.765625 499.511719 370.9375 499.203125 371.058594 C 498.898438 371.175781 498.582031 371.230469 498.253906 371.21875 Z M 498.261719 371.21875 "/>
<path style=" stroke:none;fill-rule:nonzero;fill:rgb(74.899292%,80.389404%,90.19928%);fill-opacity:1;" d="M 509.601562 414.238281 L 440.414062 414.238281 C 440.097656 414.230469 439.792969 414.160156 439.507812 414.035156 C 439.21875 413.90625 438.960938 413.730469 438.742188 413.503906 C 438.523438 413.277344 438.351562 413.015625 438.234375 412.722656 C 438.117188 412.429688 438.058594 412.125 438.058594 411.8125 C 438.058594 411.496094 438.117188 411.191406 438.234375 410.898438 C 438.351562 410.605469 438.523438 410.34375 438.742188 410.117188 C 438.960938 409.890625 439.21875 409.714844 439.507812 409.589844 C 439.792969 409.460938 440.097656 409.390625 440.414062 409.382812 L 509.601562 409.382812 C 509.917969 409.390625 510.21875 409.460938 510.507812 409.589844 C 510.796875 409.714844 511.050781 409.890625 511.273438 410.117188 C 511.492188 410.34375 511.660156 410.605469 511.78125 410.898438 C 511.898438 411.191406 511.957031 411.496094 511.957031 411.8125 C 511.957031 412.125 511.898438 412.429688 511.78125 412.722656 C 511.660156 413.015625 511.492188 413.277344 511.273438 413.503906 C 511.050781 413.730469 510.796875 413.90625 510.507812 414.035156 C 510.21875 414.160156 509.917969 414.230469 509.601562 414.238281 Z M 509.601562 414.238281 "/>
<path style=" stroke:none;fill-rule:nonzero;fill:rgb(74.899292%,80.389404%,90.19928%);fill-opacity:1;" d="M 520.941406 457.253906 L 451.753906 457.253906 C 451.425781 457.265625 451.109375 457.210938 450.800781 457.089844 C 450.496094 456.972656 450.222656 456.796875 449.988281 456.570312 C 449.753906 456.339844 449.570312 456.074219 449.445312 455.773438 C 449.316406 455.472656 449.25 455.15625 449.25 454.828125 C 449.25 454.5 449.316406 454.183594 449.445312 453.878906 C 449.570312 453.578125 449.753906 453.3125 449.988281 453.082031 C 450.222656 452.855469 450.496094 452.679688 450.800781 452.5625 C 451.109375 452.445312 451.425781 452.390625 451.753906 452.398438 L 520.941406 452.398438 C 521.257812 452.410156 521.558594 452.476562 521.847656 452.605469 C 522.136719 452.730469 522.390625 452.910156 522.613281 453.136719 C 522.832031 453.363281 523 453.621094 523.121094 453.914062 C 523.238281 454.207031 523.296875 454.511719 523.296875 454.828125 C 523.296875 455.144531 523.238281 455.445312 523.121094 455.738281 C 523 456.03125 522.832031 456.292969 522.613281 456.519531 C 522.390625 456.746094 522.136719 456.921875 521.847656 457.050781 C 521.558594 457.175781 521.257812 457.246094 520.941406 457.253906 Z M 520.941406 457.253906 "/>
<path style=" stroke:none;fill-rule:nonzero;fill:rgb(74.899292%,80.389404%,90.19928%);fill-opacity:1;" d="M 532.28125 500.269531 L 463.089844 500.269531 C 462.777344 500.261719 462.472656 500.191406 462.183594 500.066406 C 461.894531 499.9375 461.640625 499.761719 461.421875 499.535156 C 461.199219 499.308594 461.03125 499.046875 460.914062 498.753906 C 460.792969 498.464844 460.734375 498.160156 460.734375 497.84375 C 460.734375 497.527344 460.792969 497.222656 460.914062 496.929688 C 461.03125 496.636719 461.199219 496.378906 461.421875 496.152344 C 461.640625 495.925781 461.894531 495.746094 462.183594 495.621094 C 462.472656 495.492188 462.777344 495.425781 463.089844 495.414062 L 532.28125 495.414062 C 532.59375 495.425781 532.898438 495.492188 533.1875 495.621094 C 533.476562 495.746094 533.730469 495.925781 533.949219 496.152344 C 534.171875 496.378906 534.339844 496.636719 534.457031 496.929688 C 534.578125 497.222656 534.636719 497.527344 534.636719 497.84375 C 534.636719 498.160156 534.578125 498.464844 534.457031 498.753906 C 534.339844 499.046875 534.171875 499.308594 533.949219 499.535156 C 533.730469 499.761719 533.476562 499.9375 533.1875 500.066406 C 532.898438 500.191406 532.59375 500.261719 532.28125 500.269531 Z M 532.28125 500.269531 "/>
<path style=" stroke:none;fill-rule:nonzero;fill:rgb(74.899292%,80.389404%,90.19928%);fill-opacity:1;" d="M 543.621094 543.289062 L 474.429688 543.289062 C 474.101562 543.300781 473.785156 543.246094 473.480469 543.125 C 473.171875 543.007812 472.902344 542.832031 472.667969 542.605469 C 472.429688 542.375 472.25 542.109375 472.121094 541.808594 C 471.992188 541.503906 471.929688 541.191406 471.929688 540.859375 C 471.929688 540.53125 471.992188 540.21875 472.121094 539.914062 C 472.25 539.613281 472.429688 539.347656 472.667969 539.117188 C 472.902344 538.890625 473.171875 538.714844 473.480469 538.597656 C 473.785156 538.476562 474.101562 538.421875 474.429688 538.433594 L 543.621094 538.433594 C 543.9375 538.441406 544.238281 538.511719 544.527344 538.636719 C 544.816406 538.765625 545.070312 538.941406 545.289062 539.167969 C 545.511719 539.394531 545.679688 539.65625 545.796875 539.949219 C 545.917969 540.242188 545.976562 540.546875 545.976562 540.859375 C 545.976562 541.175781 545.917969 541.480469 545.796875 541.773438 C 545.679688 542.066406 545.511719 542.324219 545.289062 542.550781 C 545.070312 542.777344 544.816406 542.957031 544.527344 543.082031 C 544.238281 543.210938 543.9375 543.28125 543.621094 543.289062 Z M 543.621094 543.289062 "/>
<path style=" stroke:none;fill-rule:nonzero;fill:rgb(74.899292%,80.389404%,90.19928%);fill-opacity:1;" d="M 554.957031 586.304688 L 485.765625 586.304688 C 485.453125 586.296875 485.148438 586.226562 484.859375 586.101562 C 484.570312 585.972656 484.316406 585.796875 484.097656 585.570312 C 483.875 585.34375 483.707031 585.082031 483.589844 584.789062 C 483.46875 584.496094 483.410156 584.191406 483.410156 583.878906 C 483.410156 583.5625 483.46875 583.257812 483.589844 582.964844 C 483.707031 582.671875 483.875 582.410156 484.097656 582.183594 C 484.316406 581.957031 484.570312 581.78125 484.859375 581.652344 C 485.148438 581.527344 485.453125 581.457031 485.765625 581.449219 L 554.957031 581.449219 C 555.285156 581.4375 555.601562 581.492188 555.90625 581.613281 C 556.214844 581.730469 556.484375 581.90625 556.71875 582.132812 C 556.957031 582.363281 557.136719 582.628906 557.265625 582.929688 C 557.394531 583.234375 557.457031 583.550781 557.457031 583.878906 C 557.457031 584.207031 557.394531 584.519531 557.265625 584.824219 C 557.136719 585.125 556.957031 585.390625 556.71875 585.621094 C 556.484375 585.847656 556.214844 586.023438 555.90625 586.140625 C 555.601562 586.261719 555.285156 586.316406 554.957031 586.304688 Z M 554.957031 586.304688 "/>
<path style=" stroke:none;fill-rule:nonzero;fill:rgb(74.899292%,80.389404%,90.19928%);fill-opacity:1;" d="M 566.296875 629.324219 L 497.109375 629.324219 C 496.78125 629.332031 496.464844 629.277344 496.15625 629.160156 C 495.851562 629.042969 495.582031 628.867188 495.34375 628.640625 C 495.109375 628.410156 494.925781 628.144531 494.800781 627.84375 C 494.671875 627.539062 494.609375 627.222656 494.609375 626.894531 C 494.609375 626.566406 494.671875 626.25 494.800781 625.949219 C 494.925781 625.644531 495.109375 625.378906 495.34375 625.152344 C 495.582031 624.921875 495.851562 624.75 496.15625 624.628906 C 496.464844 624.511719 496.78125 624.457031 497.109375 624.46875 L 566.296875 624.46875 C 566.613281 624.476562 566.917969 624.546875 567.207031 624.671875 C 567.496094 624.800781 567.75 624.976562 567.96875 625.203125 C 568.1875 625.429688 568.355469 625.691406 568.476562 625.984375 C 568.59375 626.273438 568.652344 626.578125 568.652344 626.894531 C 568.652344 627.210938 568.59375 627.515625 568.476562 627.808594 C 568.355469 628.101562 568.1875 628.359375 567.96875 628.585938 C 567.75 628.8125 567.496094 628.992188 567.207031 629.117188 C 566.917969 629.246094 566.613281 629.3125 566.296875 629.324219 Z M 566.296875 629.324219 "/>
<path style=" stroke:none;fill-rule:nonzero;fill:rgb(74.899292%,80.389404%,90.19928%);fill-opacity:1;" d="M 577.640625 672.339844 L 508.449219 672.339844 C 508.125 672.339844 507.816406 672.277344 507.519531 672.15625 C 507.222656 672.03125 506.960938 671.855469 506.730469 671.628906 C 506.503906 671.402344 506.328125 671.136719 506.207031 670.839844 C 506.082031 670.542969 506.019531 670.234375 506.019531 669.914062 C 506.019531 669.589844 506.082031 669.28125 506.207031 668.984375 C 506.328125 668.6875 506.503906 668.421875 506.730469 668.195312 C 506.960938 667.96875 507.222656 667.792969 507.519531 667.671875 C 507.816406 667.546875 508.125 667.484375 508.449219 667.484375 L 577.640625 667.484375 C 577.960938 667.484375 578.269531 667.546875 578.566406 667.671875 C 578.863281 667.792969 579.128906 667.96875 579.355469 668.195312 C 579.582031 668.421875 579.757812 668.6875 579.878906 668.984375 C 580.003906 669.28125 580.066406 669.589844 580.066406 669.914062 C 580.066406 670.234375 580.003906 670.542969 579.878906 670.839844 C 579.757812 671.136719 579.582031 671.402344 579.355469 671.628906 C 579.128906 671.855469 578.863281 672.03125 578.566406 672.15625 C 578.269531 672.277344 577.960938 672.339844 577.640625 672.339844 Z M 577.640625 672.339844 "/>
<path style=" stroke:none;fill-rule:nonzero;fill:rgb(74.899292%,80.389404%,90.19928%);fill-opacity:1;" d="M 361.027344 269.308594 L 396.128906 269.308594 L 396.128906 282.757812 L 361.027344 282.757812 Z M 361.027344 269.308594 "/>
<path style=" stroke:none;fill-rule:nonzero;fill:rgb(84.309387%,89.019775%,97.24884%);fill-opacity:1;" d="M 396.128906 269.308594 L 485.339844 269.308594 L 485.339844 282.757812 L 396.128906 282.757812 Z M 396.128906 269.308594 "/>
<path style=" stroke:none;fill-rule:nonzero;fill:rgb(9.799194%,17.649841%,32.939148%);fill-opacity:1;" d="M 545.0625 529.476562 C 541.804688 534.957031 527.738281 532.59375 526.738281 540.859375 L 560.71875 540.859375 C 560.625 536.941406 559.890625 533.148438 558.515625 529.476562 Z M 545.0625 529.476562 "/>
<path style=" stroke:none;fill-rule:nonzero;fill:rgb(9.799194%,17.649841%,32.939148%);fill-opacity:1;" d="M 514.605469 529.476562 C 511.347656 534.957031 497.277344 532.59375 496.28125 540.859375 L 530.25 540.859375 C 530.195312 536.976562 529.585938 533.179688 528.417969 529.476562 Z M 514.605469 529.476562 "/>
<path style=" stroke:none;fill-rule:nonzero;fill:rgb(94.509888%,72.938538%,70.199585%);fill-opacity:1;" d="M 557.101562 199.539062 C 559.894531 205.125 557.84375 222.816406 556.355469 223.003906 C 552.371094 222.59375 548.648438 221.382812 545.183594 219.371094 C 543.324219 217.695312 542.113281 212.574219 542.113281 212.574219 C 541.644531 214.71875 537.734375 213.691406 537.828125 209.6875 C 537.921875 205.683594 541.179688 205.964844 542.019531 207.359375 C 542.019531 207.359375 541.179688 200.003906 542.949219 199.539062 C 544.71875 199.074219 557.101562 199.539062 557.101562 199.539062 Z M 557.101562 199.539062 "/>
<path style=" stroke:none;fill-rule:nonzero;fill:rgb(94.509888%,72.938538%,70.199585%);fill-opacity:1;" d="M 527.777344 233.976562 L 551.023438 231.539062 C 551.023438 231.539062 550.054688 225.046875 550.007812 221.996094 C 550.007812 221.871094 550.007812 221.730469 550.007812 221.601562 C 548.277344 221.128906 546.667969 220.382812 545.183594 219.371094 C 543.324219 217.695312 542.113281 212.574219 542.113281 212.574219 C 541.648438 214.707031 537.765625 213.695312 537.832031 209.734375 C 534.855469 210.996094 532.113281 212.644531 529.605469 214.683594 C 529.503906 216.625 527.777344 233.976562 527.777344 233.976562 Z M 527.777344 233.976562 "/>
<path style=" stroke:none;fill-rule:nonzero;fill:rgb(92.549133%,67.449951%,63.529968%);fill-opacity:1;" d="M 541.574219 214.683594 C 542.015625 216.722656 542.734375 218.65625 543.734375 220.480469 C 545.621094 222.167969 547.757812 223.4375 550.144531 224.285156 C 550.074219 223.433594 550.019531 222.636719 550.011719 221.996094 C 550.011719 221.871094 550.011719 221.730469 550.011719 221.601562 C 548.277344 221.128906 546.667969 220.382812 545.183594 219.371094 C 543.324219 217.695312 542.113281 212.574219 542.113281 212.574219 C 541.648438 214.707031 537.765625 213.695312 537.832031 209.734375 L 537.816406 209.734375 C 536.566406 214.695312 540.460938 216.40625 541.574219 214.683594 Z M 541.574219 214.683594 "/>
<path style=" stroke:none;fill-rule:nonzero;fill:rgb(9.799194%,17.649841%,32.939148%);fill-opacity:1;" d="M 565.949219 185.953125 C 561.886719 183.3125 556.507812 185.546875 552.957031 187.171875 C 549.402344 188.796875 541.179688 185.75 532.957031 188.898438 C 524.734375 192.042969 529.695312 212.753906 529.605469 214.683594 C 532.113281 212.644531 534.855469 210.996094 537.832031 209.734375 C 537.832031 209.71875 537.832031 209.707031 537.832031 209.6875 C 537.925781 205.683594 541.183594 205.964844 542.023438 207.359375 C 542.023438 207.359375 541.183594 200.003906 542.953125 199.539062 C 544.722656 199.074219 557.105469 199.539062 557.105469 199.539062 C 557.148438 199.628906 557.183594 199.757812 557.226562 199.84375 C 557.75 199.660156 558.292969 199.5625 558.847656 199.558594 C 569.808594 198.339844 570.007812 188.59375 565.949219 185.953125 Z M 565.949219 185.953125 "/>
<path style=" stroke:none;fill-rule:nonzero;fill:rgb(15.689087%,38.42926%,87.059021%);fill-opacity:1;" d="M 666.601562 230.167969 C 651.628906 242.402344 631.984375 252.222656 625.792969 258.953125 C 625.792969 258.953125 581.492188 233.195312 573.105469 231.691406 C 570.570312 230.898438 568.054688 230.199219 565.554688 229.589844 C 572.8125 239.292969 571.125 267.023438 571.125 267.023438 C 587.28125 273.472656 607.941406 278.054688 629.902344 282.101562 C 642.792969 275.316406 669.089844 242.605469 673.148438 236.714844 Z M 666.601562 230.167969 "/>
<path style=" stroke:none;fill-rule:nonzero;fill:rgb(15.689087%,38.42926%,87.059021%);fill-opacity:1;" d="M 508.238281 244.484375 C 500.792969 257.03125 492.21875 268.746094 482.507812 279.632812 C 476.035156 274.988281 462.660156 274.109375 450.898438 266.234375 L 446.433594 272.730469 C 457.835938 285.261719 470.492188 296.363281 484.402344 306.035156 C 492.4375 301.886719 516.878906 283.328125 521.191406 278.8125 C 523.566406 267.667969 521.484375 246.285156 508.238281 244.484375 Z M 508.238281 244.484375 "/>
<path style=" stroke:none;fill-rule:nonzero;fill:rgb(20.388794%,19.999695%,34.509277%);fill-opacity:1;" d="M 510.519531 337.78125 C 494.101562 417.324219 511.40625 526.71875 514.605469 529.476562 C 517.804688 532.234375 525.226562 532.351562 528.417969 529.476562 C 531.609375 526.601562 528.25 462.742188 535.070312 417.324219 C 534.886719 453.105469 542.136719 527.171875 545.066406 529.476562 C 547.992188 531.78125 555.511719 532.261719 558.507812 529.476562 C 561.5 526.691406 555.5 438.761719 570.6875 343.890625 Z M 510.519531 337.78125 "/>
<path style=" stroke:none;fill-rule:nonzero;fill:rgb(29.019165%,47.839355%,100%);fill-opacity:1;" d="M 565.554688 229.589844 C 542.796875 224.042969 521.796875 226.488281 508.238281 244.484375 C 508.996094 275.582031 509.757812 306.679688 510.519531 337.78125 C 516.242188 340.925781 522.265625 343.3125 528.589844 344.945312 C 534.910156 346.578125 541.335938 347.40625 547.867188 347.425781 C 555.652344 347.410156 563.253906 346.230469 570.679688 343.890625 L 571.113281 267.023438 C 571.113281 267.023438 572.8125 239.292969 565.554688 229.589844 Z M 565.554688 229.589844 "/>
<path style=" stroke:none;fill-rule:nonzero;fill:rgb(94.509888%,72.938538%,70.199585%);fill-opacity:1;" d="M 666.601562 230.167969 C 668.605469 227.296875 669.207031 217.785156 669.207031 216.03125 C 669.207031 214.277344 672.488281 214.460938 672.488281 218.453125 C 672.488281 222.449219 674.363281 226.027344 676.726562 226.027344 L 693.4375 226.027344 C 695.859375 226.027344 696.464844 228.996094 694.890625 228.996094 C 693.316406 228.996094 684.054688 229.484375 679.632812 231.691406 C 677.101562 232.886719 674.941406 234.558594 673.15625 236.714844 Z M 666.601562 230.167969 "/>
<path style=" stroke:none;fill-rule:nonzero;fill:rgb(94.509888%,72.938538%,70.199585%);fill-opacity:1;" d="M 450.898438 266.238281 C 446.429688 264.8125 441.222656 261.058594 439.527344 261.300781 C 437.835938 261.539062 437.046875 262.449219 433.664062 264.207031 C 430.28125 265.960938 427.304688 266.507812 427.304688 267.71875 C 427.304688 268.933594 429.0625 269.113281 430.089844 268.992188 C 432.488281 268.085938 434.828125 267.058594 437.113281 265.902344 C 437.597656 265.722656 439.722656 268.628906 441.714844 270.445312 C 443.09375 271.609375 444.667969 272.375 446.4375 272.738281 Z M 450.898438 266.238281 "/>
<path style=" stroke:none;fill-rule:nonzero;fill:rgb(74.899292%,80.389404%,90.19928%);fill-opacity:1;" d="M 861.890625 108 C 861.890625 107.585938 861.8125 107.1875 861.652344 106.804688 C 861.496094 106.421875 861.269531 106.085938 860.976562 105.792969 C 860.683594 105.5 860.347656 105.273438 859.964844 105.117188 C 859.582031 104.957031 859.183594 104.878906 858.769531 104.878906 L 675.71875 104.878906 C 675.304688 104.878906 674.90625 104.957031 674.523438 105.117188 C 674.140625 105.273438 673.804688 105.5 673.511719 105.792969 C 673.21875 106.085938 672.992188 106.421875 672.835938 106.804688 C 672.675781 107.1875 672.597656 107.585938 672.597656 108 L 672.597656 114.121094 L 861.890625 114.121094 Z M 861.890625 108 "/>
<path style=" stroke:none;fill-rule:nonzero;fill:rgb(100%,100%,100%);fill-opacity:1;" d="M 672.597656 114.121094 L 672.597656 222.90625 C 672.597656 223.320312 672.679688 223.71875 672.835938 224.097656 C 672.996094 224.480469 673.222656 224.820312 673.515625 225.113281 C 673.804688 225.40625 674.144531 225.628906 674.527344 225.789062 C 674.910156 225.949219 675.308594 226.027344 675.722656 226.027344 L 858.78125 226.027344 C 859.195312 226.027344 859.59375 225.949219 859.972656 225.789062 C 860.355469 225.628906 860.695312 225.40625 860.988281 225.113281 C 861.28125 224.820312 861.503906 224.480469 861.664062 224.097656 C 861.824219 223.71875 861.902344 223.320312 861.902344 222.90625 L 861.902344 114.121094 Z M 672.597656 114.121094 "/>
<path style=" stroke:none;fill-rule:nonzero;fill:rgb(69.018555%,75.289917%,84.709167%);fill-opacity:1;" d="M 679.78125 109.78125 C 679.78125 110.011719 679.734375 110.234375 679.648438 110.445312 C 679.558594 110.65625 679.433594 110.84375 679.273438 111.007812 C 679.109375 111.167969 678.921875 111.292969 678.710938 111.382812 C 678.5 111.46875 678.277344 111.515625 678.046875 111.515625 C 677.820312 111.515625 677.597656 111.46875 677.386719 111.382812 C 677.171875 111.292969 676.984375 111.167969 676.824219 111.007812 C 676.660156 110.84375 676.535156 110.65625 676.449219 110.445312 C 676.359375 110.234375 676.316406 110.011719 676.316406 109.78125 C 676.316406 109.554688 676.359375 109.332031 676.449219 109.121094 C 676.535156 108.90625 676.660156 108.71875 676.824219 108.558594 C 676.984375 108.394531 677.171875 108.269531 677.386719 108.183594 C 677.597656 108.09375 677.820312 108.050781 678.046875 108.050781 C 678.277344 108.050781 678.5 108.09375 678.710938 108.183594 C 678.921875 108.269531 679.109375 108.394531 679.273438 108.558594 C 679.433594 108.71875 679.558594 108.90625 679.648438 109.121094 C 679.734375 109.332031 679.78125 109.554688 679.78125 109.78125 Z M 679.78125 109.78125 "/>
<path style=" stroke:none;fill-rule:nonzero;fill:rgb(69.018555%,75.289917%,84.709167%);fill-opacity:1;" d="M 686.289062 109.78125 C 686.289062 110.011719 686.246094 110.234375 686.15625 110.445312 C 686.070312 110.65625 685.941406 110.84375 685.78125 111.007812 C 685.617188 111.167969 685.429688 111.292969 685.21875 111.382812 C 685.007812 111.46875 684.785156 111.515625 684.558594 111.515625 C 684.328125 111.515625 684.105469 111.46875 683.894531 111.382812 C 683.683594 111.292969 683.496094 111.167969 683.332031 111.007812 C 683.171875 110.84375 683.042969 110.65625 682.957031 110.445312 C 682.867188 110.234375 682.824219 110.011719 682.824219 109.78125 C 682.824219 109.554688 682.867188 109.332031 682.957031 109.121094 C 683.042969 108.90625 683.171875 108.71875 683.332031 108.558594 C 683.496094 108.394531 683.683594 108.269531 683.894531 108.183594 C 684.105469 108.09375 684.328125 108.050781 684.558594 108.050781 C 684.785156 108.050781 685.007812 108.09375 685.21875 108.183594 C 685.429688 108.269531 685.617188 108.394531 685.78125 108.558594 C 685.941406 108.71875 686.070312 108.90625 686.15625 109.121094 C 686.246094 109.332031 686.289062 109.554688 686.289062 109.78125 Z M 686.289062 109.78125 "/>
<path style=" stroke:none;fill-rule:nonzero;fill:rgb(69.018555%,75.289917%,84.709167%);fill-opacity:1;" d="M 692.800781 109.78125 C 692.800781 110.011719 692.753906 110.234375 692.667969 110.445312 C 692.578125 110.65625 692.453125 110.84375 692.292969 111.007812 C 692.128906 111.167969 691.941406 111.292969 691.730469 111.382812 C 691.519531 111.46875 691.296875 111.515625 691.066406 111.515625 C 690.839844 111.515625 690.617188 111.46875 690.40625 111.382812 C 690.191406 111.292969 690.003906 111.167969 689.84375 111.007812 C 689.679688 110.84375 689.554688 110.65625 689.46875 110.445312 C 689.378906 110.234375 689.335938 110.011719 689.335938 109.78125 C 689.335938 109.554688 689.378906 109.332031 689.46875 109.121094 C 689.554688 108.90625 689.679688 108.71875 689.84375 108.558594 C 690.003906 108.394531 690.191406 108.269531 690.40625 108.183594 C 690.617188 108.09375 690.839844 108.050781 691.066406 108.050781 C 691.296875 108.050781 691.519531 108.09375 691.730469 108.183594 C 691.941406 108.269531 692.128906 108.394531 692.292969 108.558594 C 692.453125 108.71875 692.578125 108.90625 692.667969 109.121094 C 692.753906 109.332031 692.800781 109.554688 692.800781 109.78125 Z M 692.800781 109.78125 "/>
<path style=" stroke:none;fill-rule:nonzero;fill:rgb(96.078491%,97.24884%,99.21875%);fill-opacity:1;" d="M 689.335938 128.257812 L 777.292969 128.257812 L 777.292969 133.832031 L 689.335938 133.832031 Z M 689.335938 128.257812 "/>
<path style=" stroke:none;fill-rule:nonzero;fill:rgb(96.078491%,97.24884%,99.21875%);fill-opacity:1;" d="M 689.335938 142.1875 L 735.445312 142.1875 L 735.445312 147.761719 L 689.335938 147.761719 Z M 689.335938 142.1875 "/>
<path style=" stroke:none;fill-rule:nonzero;fill:rgb(96.078491%,97.24884%,99.21875%);fill-opacity:1;" d="M 689.335938 156.117188 L 807.300781 156.117188 L 807.300781 161.691406 L 689.335938 161.691406 Z M 689.335938 156.117188 "/>
<path style=" stroke:none;fill-rule:nonzero;fill:rgb(96.078491%,97.24884%,99.21875%);fill-opacity:1;" d="M 689.335938 170.050781 L 786.558594 170.050781 L 786.558594 175.625 L 689.335938 175.625 Z M 689.335938 170.050781 "/>
<path style=" stroke:none;fill-rule:nonzero;fill:rgb(96.078491%,97.24884%,99.21875%);fill-opacity:1;" d="M 689.335938 183.980469 L 730.515625 183.980469 L 730.515625 189.554688 L 689.335938 189.554688 Z M 689.335938 183.980469 "/>
<path style=" stroke:none;fill-rule:nonzero;fill:rgb(74.899292%,80.389404%,90.19928%);fill-opacity:1;" d="M 186.511719 697.246094 L 1050.230469 697.246094 C 1050.75 697.246094 1051.261719 697.296875 1051.773438 697.398438 C 1052.28125 697.5 1052.773438 697.652344 1053.253906 697.847656 C 1053.734375 698.046875 1054.1875 698.289062 1054.617188 698.578125 C 1055.050781 698.867188 1055.449219 699.195312 1055.816406 699.5625 C 1056.183594 699.929688 1056.511719 700.328125 1056.796875 700.757812 C 1057.085938 701.191406 1057.328125 701.644531 1057.527344 702.125 C 1057.726562 702.605469 1057.875 703.097656 1057.976562 703.605469 C 1058.078125 704.117188 1058.128906 704.628906 1058.128906 705.148438 C 1058.128906 705.667969 1058.078125 706.183594 1057.976562 706.691406 C 1057.875 707.199219 1057.726562 707.695312 1057.527344 708.171875 C 1057.328125 708.652344 1057.085938 709.109375 1056.796875 709.539062 C 1056.511719 709.96875 1056.183594 710.371094 1055.816406 710.734375 C 1055.449219 711.101562 1055.050781 711.429688 1054.617188 711.71875 C 1054.1875 712.007812 1053.734375 712.25 1053.253906 712.449219 C 1052.773438 712.648438 1052.28125 712.796875 1051.773438 712.898438 C 1051.261719 713 1050.75 713.050781 1050.230469 713.050781 L 186.511719 713.050781 C 185.992188 713.050781 185.476562 713 184.96875 712.898438 C 184.460938 712.796875 183.964844 712.648438 183.488281 712.449219 C 183.007812 712.25 182.554688 712.007812 182.121094 711.71875 C 181.691406 711.429688 181.292969 711.101562 180.925781 710.734375 C 180.558594 710.371094 180.230469 709.96875 179.941406 709.539062 C 179.652344 709.109375 179.410156 708.652344 179.210938 708.171875 C 179.015625 707.695312 178.863281 707.199219 178.761719 706.691406 C 178.660156 706.183594 178.609375 705.667969 178.609375 705.148438 C 178.609375 704.628906 178.660156 704.117188 178.761719 703.605469 C 178.863281 703.097656 179.015625 702.605469 179.210938 702.125 C 179.410156 701.644531 179.652344 701.191406 179.941406 700.757812 C 180.230469 700.328125 180.558594 699.929688 180.925781 699.5625 C 181.292969 699.195312 181.691406 698.867188 182.121094 698.578125 C 182.554688 698.289062 183.007812 698.046875 183.488281 697.847656 C 183.964844 697.652344 184.460938 697.5 184.96875 697.398438 C 185.476562 697.296875 185.992188 697.246094 186.511719 697.246094 Z M 186.511719 697.246094 "/>
<path style=" stroke:none;fill-rule:nonzero;fill:rgb(96.859741%,57.649231%,56.469727%);fill-opacity:1;" d="M 698.121094 407.5625 C 701.160156 409.515625 704.109375 411.601562 706.964844 413.8125 C 709.824219 416.027344 712.578125 418.363281 715.230469 420.820312 C 717.878906 423.277344 720.417969 425.84375 722.84375 428.527344 C 725.269531 431.207031 727.570312 433.988281 729.75 436.871094 C 731.929688 439.753906 733.976562 442.730469 735.894531 445.792969 C 737.8125 448.859375 739.59375 452 741.234375 455.222656 C 742.875 458.441406 744.371094 461.730469 745.71875 465.082031 C 747.070312 468.433594 748.273438 471.839844 749.324219 475.300781 C 756.273438 498.667969 766.535156 496.375 754.046875 505.636719 L 744.804688 506.992188 C 732.101562 503.152344 735.53125 501.140625 734.800781 491.128906 C 734.066406 481.117188 717.148438 453.859375 705.226562 446.109375 C 692.171875 433.027344 682.261719 407.5 698.121094 407.5625 Z M 698.121094 407.5625 "/>
<path style=" stroke:none;fill-rule:nonzero;fill:rgb(97.24884%,71.759033%,56.858826%);fill-opacity:1;" d="M 754.046875 505.636719 C 755.699219 509.765625 765.332031 510.457031 768.503906 508.117188 C 770.1875 506.878906 770.835938 509.59375 768.03125 511.433594 C 765.230469 513.277344 763.972656 513.484375 762.273438 516.609375 C 760.570312 519.734375 764.789062 525.933594 768.675781 527.429688 C 766.167969 529.003906 757.863281 525.089844 754.5 522.695312 C 751.136719 520.300781 744.804688 506.992188 744.804688 506.992188 Z M 754.046875 505.636719 "/>
<path style=" stroke:none;fill-rule:nonzero;fill:rgb(9.799194%,17.649841%,32.939148%);fill-opacity:1;" d="M 665.691406 352.269531 C 656.859375 353.242188 645.339844 364.828125 651.75 386.332031 C 658.15625 407.835938 637.65625 401.023438 631.136719 411.886719 C 624.617188 422.746094 638.222656 433.632812 629.710938 443.113281 C 621.195312 452.59375 612.476562 473.015625 623.683594 486.238281 C 634.886719 499.460938 660.953125 488.753906 660.613281 462.421875 C 660.273438 436.089844 668.953125 445.394531 673.777344 437.144531 C 678.601562 428.894531 671.671875 423.714844 672.90625 414.847656 C 674.144531 405.984375 682.375 407.652344 685.527344 398.699219 C 688.675781 389.746094 695.882812 348.945312 665.691406 352.269531 Z M 665.691406 352.269531 "/>
<path style=" stroke:none;fill-rule:nonzero;fill:rgb(94.509888%,72.938538%,70.199585%);fill-opacity:1;" d="M 673.234375 511.464844 C 675.902344 543.710938 685.230469 586.542969 671.929688 615.878906 C 660.285156 641.574219 668.164062 646.714844 650.964844 686.476562 L 663.75 686.476562 C 685.921875 637.394531 702.089844 588.507812 704.4375 539.910156 C 711.332031 560.398438 728.535156 585.476562 725.367188 611.085938 C 721.601562 641.574219 732.5625 637.808594 729.320312 686.480469 L 742.117188 686.480469 C 742.4375 623.988281 739.316406 563.503906 727.753906 505.542969 Z M 673.234375 511.464844 "/>
<path style=" stroke:none;fill-rule:nonzero;fill:rgb(20.388794%,19.999695%,34.509277%);fill-opacity:1;" d="M 673.234375 511.464844 C 676.558594 533.484375 670.90625 571.34375 670.90625 571.34375 C 689.863281 576.824219 730.96875 573.171875 742.503906 564.824219 C 740.789062 544.953125 735.660156 522.175781 727.746094 505.527344 Z M 673.234375 511.464844 "/>
<path style=" stroke:none;fill-rule:nonzero;fill:rgb(9.799194%,17.649841%,32.939148%);fill-opacity:1;" d="M 742.117188 686.472656 C 745.121094 691.542969 758.152344 689.359375 759.074219 697.007812 L 727.632812 697.007812 C 727.683594 693.414062 728.246094 689.902344 729.324219 686.472656 Z M 742.117188 686.472656 "/>
<path style=" stroke:none;fill-rule:nonzero;fill:rgb(9.799194%,17.649841%,32.939148%);fill-opacity:1;" d="M 663.753906 686.472656 C 666.761719 691.542969 679.785156 689.359375 680.710938 697.007812 L 649.277344 697.007812 C 649.328125 693.414062 649.890625 689.902344 650.96875 686.472656 Z M 663.753906 686.472656 "/>
<path style=" stroke:none;fill-rule:nonzero;fill:rgb(94.509888%,72.938538%,70.199585%);fill-opacity:1;" d="M 680.445312 410.722656 C 675.011719 408.359375 673.253906 404.824219 665.597656 404.152344 C 669.441406 397.9375 672.21875 392.363281 668.890625 385.042969 C 668.59375 377.632812 679.75 377.4375 681.53125 383.855469 C 681.53125 383.855469 681.53125 398.476562 688.640625 401.632812 C 694.21875 410.128906 686.222656 413.238281 680.445312 410.722656 Z M 680.445312 410.722656 "/>
<path style=" stroke:none;fill-rule:nonzero;fill:rgb(29.019165%,47.839355%,100%);fill-opacity:1;" d="M 666.914062 484.992188 C 664.542969 473.535156 652.691406 436.402344 657.039062 420.992188 C 659.066406 414.960938 661.917969 409.34375 665.597656 404.152344 C 673.253906 404.824219 675.023438 408.359375 680.445312 410.722656 C 686.222656 413.238281 694.21875 410.128906 688.640625 401.632812 C 695.75 404.796875 706.117188 410.425781 708.785156 421.390625 C 711.453125 432.351562 723.402344 481.4375 728.140625 487.363281 C 732.882812 493.289062 737.226562 498.425781 727.746094 505.535156 C 718.265625 512.648438 685.085938 517.386719 673.234375 511.460938 C 661.382812 505.539062 669.285156 496.449219 666.914062 484.992188 Z M 666.914062 484.992188 "/>
<path style=" stroke:none;fill-rule:nonzero;fill:rgb(100%,100%,100%);fill-opacity:1;" d="M 694.734375 396.566406 L 866.613281 396.566406 L 866.613281 529.773438 L 694.734375 529.773438 Z M 694.734375 396.566406 "/>
<g clip-path="url(#clip22)" clip-rule="nonzero">
<path style=" stroke:none;fill-rule:nonzero;fill:rgb(74.899292%,80.389404%,90.19928%);fill-opacity:1;" d="M 858.492188 522.605469 L 702.859375 522.605469 L 702.859375 403.734375 L 858.492188 403.734375 Z M 858.492188 522.605469 "/>
</g>
<g clip-path="url(#clip23)" clip-rule="nonzero">
<path style=" stroke:none;fill-rule:nonzero;fill:rgb(84.309387%,89.019775%,97.24884%);fill-opacity:1;" d="M 665.253906 522.664062 L 802.867188 522.664062 L 734.0625 453.851562 Z M 665.253906 522.664062 "/>
</g>
<g clip-path="url(#clip24)" clip-rule="nonzero">
<path style=" stroke:none;fill-rule:nonzero;fill:rgb(69.018555%,75.289917%,84.709167%);fill-opacity:1;" d="M 730.429688 522.664062 L 894.113281 522.664062 L 812.273438 440.8125 Z M 730.429688 522.664062 "/>
</g>
<path style=" stroke:none;fill-rule:nonzero;fill:rgb(15.689087%,38.42926%,87.059021%);fill-opacity:1;" d="M 657.039062 420.992188 C 657.019531 424.609375 657.160156 428.21875 657.460938 431.820312 C 657.761719 435.421875 658.214844 439.003906 658.832031 442.566406 C 659.445312 446.128906 660.214844 449.65625 661.140625 453.152344 C 662.066406 456.644531 663.144531 460.089844 664.375 463.492188 C 665.605469 466.890625 666.980469 470.226562 668.503906 473.503906 C 670.027344 476.785156 671.695312 479.988281 673.5 483.117188 C 675.304688 486.25 677.246094 489.296875 679.320312 492.253906 C 681.394531 495.214844 683.597656 498.078125 685.921875 500.84375 C 701.722656 519.414062 694.21875 526.769531 708.785156 521.335938 L 714.960938 514.328125 C 718.65625 501.585938 715.109375 503.363281 707.109375 497.289062 C 699.113281 491.21875 685.484375 462.179688 685.484375 447.957031 C 681.628906 429.882812 665.628906 407.660156 657.039062 420.992188 Z M 657.039062 420.992188 "/>
<path style=" stroke:none;fill-rule:nonzero;fill:rgb(94.509888%,72.938538%,70.199585%);fill-opacity:1;" d="M 714.960938 514.328125 C 718.886719 516.398438 727.214844 513.675781 729.035156 510.179688 C 729.996094 508.324219 731.773438 510.472656 730.070312 513.363281 C 728.363281 516.253906 727.332031 516.992188 727.183594 520.550781 C 727.035156 524.105469 733.550781 527.808594 737.699219 527.4375 C 736.144531 529.953125 726.960938 530.105469 722.886719 529.4375 C 718.808594 528.769531 708.789062 521.335938 708.789062 521.335938 Z M 714.960938 514.328125 "/>
<path style=" stroke:none;fill-rule:nonzero;fill:rgb(92.549133%,67.449951%,63.529968%);fill-opacity:1;" d="M 681.570312 393.410156 C 682.003906 393.355469 682.402344 393.207031 682.761719 392.953125 C 682 389.96875 681.589844 386.9375 681.53125 383.855469 C 679.75 377.4375 668.59375 377.632812 668.890625 385.042969 C 669.386719 386.132812 669.765625 387.261719 670.023438 388.429688 C 671.570312 389.949219 673.339844 391.136719 675.332031 391.996094 C 677.324219 392.855469 679.402344 393.328125 681.570312 393.410156 Z M 681.570312 393.410156 "/>
<path style=" stroke:none;fill-rule:nonzero;fill:rgb(94.509888%,72.938538%,70.199585%);fill-opacity:1;" d="M 683.484375 364.542969 C 685.289062 369.914062 686.3125 375.429688 686.566406 381.089844 C 686.71875 384.152344 684.097656 390.464844 681.035156 390.671875 C 677.972656 390.878906 671.457031 389.488281 669.480469 387.117188 C 667.480469 384.121094 665.976562 380.898438 664.96875 377.4375 C 675.761719 373.613281 679.238281 366.035156 679.8125 362.824219 C 680.257812 363.382812 680.800781 363.8125 681.445312 364.113281 C 682.09375 364.417969 682.773438 364.558594 683.484375 364.542969 Z M 683.484375 364.542969 "/>
<path style=" stroke:none;fill-rule:nonzero;fill:rgb(96.078491%,97.24884%,99.21875%);fill-opacity:1;" d="M 811.429688 205.042969 C 811.074219 205.042969 810.769531 204.917969 810.519531 204.664062 L 803.660156 197.804688 C 803.539062 197.683594 803.445312 197.542969 803.378906 197.386719 C 803.316406 197.226562 803.28125 197.0625 803.28125 196.890625 C 803.28125 196.722656 803.316406 196.558594 803.378906 196.398438 C 803.445312 196.242188 803.539062 196.101562 803.660156 195.980469 L 810.519531 189.117188 C 810.640625 189 810.78125 188.90625 810.9375 188.839844 C 811.09375 188.777344 811.257812 188.746094 811.429688 188.746094 C 811.601562 188.746094 811.765625 188.777344 811.921875 188.84375 C 812.082031 188.910156 812.21875 189.003906 812.339844 189.125 C 812.460938 189.246094 812.554688 189.382812 812.621094 189.542969 C 812.683594 189.699219 812.71875 189.863281 812.71875 190.035156 C 812.71875 190.203125 812.6875 190.367188 812.621094 190.527344 C 812.554688 190.683594 812.464844 190.824219 812.34375 190.945312 L 806.398438 196.890625 L 812.34375 202.839844 C 812.527344 203.023438 812.644531 203.242188 812.695312 203.5 C 812.746094 203.757812 812.722656 204.003906 812.625 204.246094 C 812.523438 204.488281 812.363281 204.679688 812.148438 204.824219 C 811.929688 204.96875 811.691406 205.042969 811.429688 205.042969 Z M 811.429688 205.042969 "/>
<path style=" stroke:none;fill-rule:nonzero;fill:rgb(96.078491%,97.24884%,99.21875%);fill-opacity:1;" d="M 830.394531 205.042969 C 830.132812 205.042969 829.894531 204.96875 829.675781 204.824219 C 829.460938 204.679688 829.300781 204.488281 829.203125 204.246094 C 829.101562 204.003906 829.078125 203.757812 829.128906 203.5 C 829.179688 203.242188 829.296875 203.023438 829.480469 202.839844 L 835.429688 196.890625 L 829.480469 190.945312 C 829.359375 190.824219 829.265625 190.683594 829.203125 190.527344 C 829.136719 190.367188 829.101562 190.203125 829.101562 190.03125 C 829.101562 189.863281 829.136719 189.695312 829.203125 189.539062 C 829.265625 189.378906 829.359375 189.242188 829.480469 189.121094 C 829.601562 189 829.742188 188.90625 829.898438 188.839844 C 830.058594 188.773438 830.222656 188.742188 830.394531 188.742188 C 830.566406 188.742188 830.730469 188.773438 830.886719 188.839844 C 831.046875 188.902344 831.1875 188.996094 831.308594 189.117188 L 838.164062 195.980469 C 838.285156 196.101562 838.378906 196.242188 838.445312 196.398438 C 838.511719 196.558594 838.542969 196.722656 838.542969 196.890625 C 838.542969 197.0625 838.511719 197.226562 838.445312 197.386719 C 838.378906 197.542969 838.285156 197.683594 838.164062 197.804688 L 831.308594 204.664062 C 831.054688 204.917969 830.75 205.042969 830.394531 205.042969 Z M 830.394531 205.042969 "/>
<path style=" stroke:none;fill-rule:nonzero;fill:rgb(96.078491%,97.24884%,99.21875%);fill-opacity:1;" d="M 817.402344 207.785156 C 817.199219 207.785156 817.003906 207.742188 816.824219 207.648438 C 816.640625 207.558594 816.488281 207.429688 816.367188 207.265625 C 816.246094 207.101562 816.167969 206.921875 816.128906 206.71875 C 816.09375 206.519531 816.105469 206.320312 816.164062 206.125 L 822.378906 185.382812 C 822.429688 185.21875 822.507812 185.074219 822.617188 184.941406 C 822.726562 184.808594 822.855469 184.703125 823.007812 184.625 C 823.15625 184.542969 823.316406 184.496094 823.484375 184.476562 C 823.65625 184.460938 823.824219 184.476562 823.984375 184.527344 C 824.148438 184.574219 824.296875 184.652344 824.429688 184.761719 C 824.5625 184.867188 824.667969 184.996094 824.75 185.148438 C 824.832031 185.296875 824.878906 185.457031 824.898438 185.625 C 824.914062 185.796875 824.902344 185.960938 824.851562 186.125 L 818.640625 206.867188 C 818.558594 207.136719 818.402344 207.359375 818.171875 207.53125 C 817.945312 207.703125 817.6875 207.785156 817.402344 207.785156 Z M 817.402344 207.785156 "/>
<path style=" stroke:none;fill-rule:nonzero;fill:rgb(0.389099%,78.819275%,61.178589%);fill-opacity:1;" d="M 257.820312 593.246094 C 247.414062 585.734375 241.707031 570.710938 246.359375 564.226562 C 250.050781 559.082031 257.574219 563.050781 261.953125 557.539062 C 267.683594 550.320312 258.039062 539.4375 264.125 530.394531 C 267.476562 525.421875 273.730469 523.765625 276.421875 523.054688 C 283.234375 521.253906 285.285156 523.820312 293.9375 522.488281 C 299.664062 521.605469 305.921875 520.734375 308.214844 516.460938 C 310.75 511.730469 305.90625 507.621094 308.726562 501.371094 C 309.433594 499.863281 310.402344 498.542969 311.625 497.414062 C 312.851562 496.28125 314.242188 495.421875 315.800781 494.835938 C 321.667969 493.097656 324.53125 498.855469 331.425781 500.003906 C 343.664062 502.039062 349.8125 485.726562 361.753906 487.878906 C 366.863281 488.796875 372.441406 492.992188 372.832031 497.46875 C 373.625 506.28125 354.730469 510.722656 354.914062 521.152344 C 355.03125 528.023438 363.355469 530.410156 362.210938 536.652344 C 361.355469 541.332031 355.726562 545.203125 350.546875 546.183594 C 341.015625 547.992188 336.285156 539.394531 325.984375 541.636719 C 323.671875 542.140625 319.648438 543.023438 318.421875 545.933594 C 315.835938 552.070312 328.914062 559.246094 326.894531 567.390625 C 325.578125 572.714844 318.605469 575.164062 317.628906 575.511719 C 306.21875 579.523438 296.640625 569.15625 291.9375 572.9375 C 287.304688 576.65625 295.503906 587.566406 290.539062 594.414062 C 285.429688 601.488281 268.59375 601.019531 257.820312 593.246094 Z M 257.820312 593.246094 "/>
<path style=" stroke:none;fill-rule:nonzero;fill:rgb(0%,72.549438%,56.079102%);fill-opacity:1;" d="M 265.414062 579.472656 C 265.257812 579.472656 265.113281 579.433594 264.980469 579.351562 C 264.785156 579.230469 264.65625 579.058594 264.605469 578.835938 C 264.550781 578.613281 264.582031 578.402344 264.703125 578.207031 C 269.664062 570.046875 275.214844 562.3125 281.355469 555 C 287.492188 547.6875 294.148438 540.878906 301.320312 534.578125 C 308.496094 528.273438 316.101562 522.550781 324.144531 517.40625 C 332.1875 512.261719 340.570312 507.75 349.300781 503.878906 C 349.507812 503.785156 349.722656 503.78125 349.9375 503.863281 C 350.152344 503.945312 350.304688 504.089844 350.398438 504.300781 C 350.492188 504.511719 350.5 504.722656 350.414062 504.9375 C 350.332031 505.152344 350.1875 505.308594 349.976562 505.402344 C 341.328125 509.238281 333.015625 513.707031 325.042969 518.808594 C 317.070312 523.90625 309.53125 529.582031 302.417969 535.828125 C 295.308594 542.074219 288.710938 548.820312 282.628906 556.070312 C 276.542969 563.320312 271.039062 570.988281 266.121094 579.070312 C 265.960938 579.335938 265.722656 579.472656 265.414062 579.472656 Z M 265.414062 579.472656 "/>
<path style=" stroke:none;fill-rule:nonzero;fill:rgb(0%,72.549438%,56.079102%);fill-opacity:1;" d="M 252.878906 600.628906 C 267.667969 591.210938 277.710938 582.214844 275.957031 575.683594 C 274.171875 569.046875 261.496094 570 259.207031 562.648438 C 255.625 551.160156 281.800781 537.085938 278.5625 528.769531 C 274.9375 519.4375 238.441406 528.707031 235.234375 520.003906 C 232.183594 511.730469 262.980469 497.421875 259.578125 484.464844 C 257.957031 478.292969 249.402344 475.554688 246.605469 474.652344 C 227.644531 468.570312 208.398438 484.398438 204.503906 479.027344 C 203.890625 477.875 203.765625 476.675781 204.125 475.421875 C 204.941406 469.191406 212.675781 468.6875 215.695312 462.089844 C 217.410156 458.347656 217.527344 452.796875 214.839844 450.140625 C 212.605469 447.925781 207.722656 448.351562 198.050781 449.289062 C 191.871094 449.886719 192.777344 450.195312 190.894531 450.160156 C 178.871094 449.929688 174.328125 438.011719 165.09375 439.195312 C 164.515625 439.269531 159.058594 439.820312 157.921875 442.890625 C 156.011719 448.105469 169.089844 453.796875 168.070312 460.25 C 166.730469 468.722656 142.53125 469.324219 142.273438 475.996094 C 142.167969 478.65625 145.898438 481.105469 148.355469 482.078125 C 158.796875 486.222656 169.09375 474.597656 175.101562 478.84375 C 176.140625 479.71875 176.921875 480.785156 177.445312 482.042969 C 177.964844 483.300781 178.167969 484.605469 178.054688 485.964844 C 177.386719 496.105469 157.300781 496.480469 153.289062 509.199219 C 151.679688 514.296875 152.492188 521.882812 156.703125 524.945312 C 164.363281 530.511719 176.574219 516.242188 198.632812 518.304688 C 202.351562 518.652344 211.105469 519.578125 213.40625 524.96875 C 213.761719 525.945312 213.941406 526.949219 213.945312 527.988281 C 213.953125 529.027344 213.785156 530.035156 213.441406 531.015625 C 210.832031 540.152344 200.664062 540.671875 193.523438 548.472656 C 185.410156 557.328125 183.480469 573.089844 188.5 577.175781 C 194.65625 582.191406 207.210938 566.445312 226.097656 570.476562 C 229.273438 571.203125 232.285156 572.359375 235.132812 573.941406 C 237.980469 575.523438 240.550781 577.472656 242.847656 579.78125 C 245.609375 582.617188 247.851562 585.820312 249.566406 589.386719 C 251.285156 592.953125 252.386719 596.703125 252.878906 600.628906 Z M 252.878906 600.628906 "/>
<path style=" stroke:none;fill-rule:nonzero;fill:rgb(1.959229%,61.178589%,47.44873%);fill-opacity:1;" d="M 255.269531 576.429688 C 255.101562 576.429688 254.953125 576.378906 254.820312 576.28125 C 254.6875 576.179688 254.597656 576.050781 254.550781 575.890625 C 252.078125 567.167969 248.894531 558.707031 245.007812 550.515625 C 241.117188 542.324219 236.574219 534.511719 231.378906 527.082031 C 224.175781 516.886719 216.765625 509.285156 203.3125 495.492188 C 192.253906 484.148438 180.734375 473.113281 169.070312 462.667969 C 168.917969 462.53125 168.835938 462.359375 168.828125 462.15625 C 168.816406 461.949219 168.878906 461.773438 169.015625 461.621094 C 169.152344 461.46875 169.324219 461.386719 169.527344 461.375 C 169.730469 461.363281 169.910156 461.421875 170.0625 461.558594 C 181.75 472.015625 193.308594 483.082031 204.386719 494.449219 C 217.890625 508.300781 225.328125 515.929688 232.601562 526.21875 C 237.847656 533.71875 242.429688 541.605469 246.355469 549.871094 C 250.28125 558.136719 253.492188 566.675781 255.988281 575.476562 C 256.046875 575.675781 256.027344 575.863281 255.925781 576.042969 C 255.828125 576.222656 255.679688 576.34375 255.480469 576.398438 C 255.410156 576.417969 255.339844 576.429688 255.269531 576.429688 Z M 255.269531 576.429688 "/>
<path style=" stroke:none;fill-rule:nonzero;fill:rgb(84.309387%,89.019775%,97.24884%);fill-opacity:1;" d="M 285.214844 697.015625 L 250.15625 697.015625 C 244.121094 672.789062 239.769531 640.140625 238.195312 593.652344 C 238.167969 592.886719 238.21875 592.125 238.347656 591.367188 C 238.472656 590.609375 238.675781 589.875 238.949219 589.15625 C 239.226562 588.441406 239.570312 587.757812 239.984375 587.109375 C 240.394531 586.464844 240.867188 585.863281 241.402344 585.3125 C 241.933594 584.757812 242.515625 584.265625 243.148438 583.832031 C 243.78125 583.394531 244.453125 583.027344 245.15625 582.726562 C 245.863281 582.429688 246.59375 582.203125 247.34375 582.046875 C 248.097656 581.894531 248.855469 581.816406 249.625 581.816406 L 285.6875 581.816406 C 286.449219 581.816406 287.207031 581.894531 287.953125 582.046875 C 288.703125 582.195312 289.425781 582.421875 290.128906 582.71875 C 290.832031 583.015625 291.5 583.378906 292.128906 583.808594 C 292.761719 584.238281 293.339844 584.726562 293.875 585.273438 C 294.40625 585.820312 294.878906 586.414062 295.292969 587.054688 C 295.707031 587.699219 296.054688 588.375 296.332031 589.085938 C 296.609375 589.792969 296.816406 590.527344 296.949219 591.277344 C 297.082031 592.027344 297.136719 592.785156 297.117188 593.550781 C 295.996094 640.074219 291.597656 672.757812 285.214844 697.015625 Z M 285.214844 697.015625 "/>
<path style=" stroke:none;fill-rule:nonzero;fill:rgb(0.389099%,78.819275%,61.178589%);fill-opacity:1;" d="M 267.652344 581.960938 C 260.214844 583.464844 251.722656 586.382812 249.75 592.574219 C 247.777344 598.765625 253.519531 604.59375 250.742188 607.824219 C 247.421875 611.695312 237.636719 605.1875 231.191406 610.480469 C 230.4375 611.097656 228.042969 613.058594 228.207031 615.453125 C 228.527344 620.054688 237.914062 620.507812 240.15625 627.054688 C 240.617188 628.3125 240.789062 629.609375 240.671875 630.945312 C 240.558594 632.28125 240.160156 633.527344 239.488281 634.6875 C 234.976562 641.160156 221.007812 632.910156 213.292969 639.660156 C 208.457031 643.894531 212.054688 648.785156 206.996094 656.902344 C 201.816406 665.207031 190.445312 672.257812 184.117188 668.839844 C 177.921875 665.5 176.730469 652.238281 181.464844 644.304688 C 184.734375 638.816406 190.0625 637.164062 189.421875 634.355469 C 188.515625 630.398438 177.527344 631.902344 175.828125 627.058594 C 174.652344 623.714844 178.398438 618.734375 182.128906 616.117188 C 189.21875 611.136719 196.019531 614.835938 201.359375 609.152344 C 202.160156 608.5 202.789062 607.707031 203.25 606.785156 C 203.714844 605.859375 203.96875 604.878906 204.011719 603.847656 C 203.4375 598.363281 191.726562 598.070312 190.757812 592.574219 C 190.109375 588.878906 194.550781 584.445312 198.71875 582.625 C 204.582031 580.0625 207.40625 583.78125 214.964844 582.292969 C 221.898438 580.925781 221.605469 577.386719 229.886719 574.335938 C 232.914062 573.25 236.027344 572.570312 239.230469 572.289062 C 242.429688 572.007812 245.617188 572.136719 248.785156 572.675781 C 252.304688 573.308594 255.667969 574.410156 258.875 575.988281 C 262.082031 577.566406 265.007812 579.558594 267.652344 581.960938 Z M 267.652344 581.960938 "/>
<path style=" stroke:none;fill-rule:nonzero;fill:rgb(0%,72.549438%,56.079102%);fill-opacity:1;" d="M 195.5625 647.792969 C 195.484375 647.792969 195.40625 647.78125 195.332031 647.75 C 195.15625 647.6875 195.03125 647.574219 194.957031 647.40625 C 194.878906 647.238281 194.875 647.070312 194.941406 646.898438 C 200.8125 631.140625 208.683594 616.457031 218.554688 602.84375 C 219.769531 601.171875 220.878906 599.449219 222.054688 597.628906 C 225.707031 591.964844 229.480469 586.113281 236.546875 581.675781 C 242.007812 578.292969 247.921875 576.167969 254.285156 575.300781 C 254.460938 575.285156 254.617188 575.332031 254.757812 575.441406 C 254.894531 575.550781 254.976562 575.691406 255.003906 575.867188 C 255.027344 576.042969 254.988281 576.203125 254.886719 576.347656 C 254.785156 576.492188 254.648438 576.582031 254.472656 576.613281 C 248.292969 577.457031 242.554688 579.519531 237.253906 582.800781 C 230.433594 587.078125 226.742188 592.796875 223.171875 598.347656 C 222.035156 600.105469 220.863281 601.921875 219.628906 603.625 C 209.820312 617.136719 202 631.71875 196.164062 647.363281 C 196.058594 647.640625 195.859375 647.785156 195.5625 647.792969 Z M 195.5625 647.792969 "/>
</g>
</svg>
